<svg xmlns="http://www.w3.org/2000/svg" xmlns:xlink="http://www.w3.org/1999/xlink" viewBox="0 0 478.24 366.4"><defs><style>.cls-1{fill:#42210b;}.cls-2{fill:#f2a031;}.cls-3{opacity:0.4;}.cls-4{fill:#ffe092;}.cls-5{opacity:0.2;}.cls-6{fill:#1a1a1a;}.cls-7{fill:#e6332b;}.cls-8{fill:#ff3c16;}.cls-9{fill:#ff701c;}.cls-10{fill:#ff811d;}.cls-11{fill:#00bd00;}.cls-12{fill:#3ba935;}.cls-13{fill:#127427;stroke:#000;stroke-miterlimit:10;stroke-width:4px;}.cls-14{fill:url(#Degradado_sin_nombre_2);}.cls-15{fill:url(#Degradado_sin_nombre_2-2);}.cls-16,.cls-17{font-size:48px;font-family:MonotypeCorsiva, Monotype Corsiva;}.cls-16{fill:#020202;}.cls-17{fill:#fff;}</style><linearGradient id="Degradado_sin_nombre_2" x1="295.08" y1="1607.24" x2="346.06" y2="1607.24" gradientTransform="translate(-256 -1304.06)" gradientUnits="userSpaceOnUse"><stop offset="0.01" stop-opacity="0"/><stop offset="0.79"/></linearGradient><linearGradient id="Degradado_sin_nombre_2-2" x1="-653.77" y1="1608.48" x2="-602.79" y2="1608.48" gradientTransform="matrix(-1, 0, 0, 1, -214.8, -1304.06)" xlink:href="#Degradado_sin_nombre_2"/></defs><title>Recurso 2</title><g id="Capa_2" data-name="Capa 2"><g id="Capa_1-2" data-name="Capa 1"><circle class="cls-1" cx="238.67" cy="193.67" r="172.73"/><path class="cls-2" d="M164.77,322.31a4.07,4.07,0,0,0,1.68,5.74,168.83,168.83,0,0,0,149.16,2.61,4.08,4.08,0,0,0,1.83-5.81L244.11,203.54a4.46,4.46,0,0,0-7.55,0Z"/><g class="cls-3"><path class="cls-4" d="M297.06,314.88a1.57,1.57,0,0,1,1.42.87,1.47,1.47,0,0,1-.76,2,138.78,138.78,0,0,1-22.41,7.7,1.58,1.58,0,0,1-1.92-1.07,1.5,1.5,0,0,1,1.12-1.83A135.58,135.58,0,0,0,296.4,315,1.51,1.51,0,0,1,297.06,314.88Z"/><path class="cls-4" d="M266.62,324.31a1.56,1.56,0,0,1,1.54,1.21,1.51,1.51,0,0,1-1.25,1.76,140.86,140.86,0,0,1-51.38,0,1.51,1.51,0,0,1-1.24-1.77,1.57,1.57,0,0,1,1.84-1.18,137.63,137.63,0,0,0,50.18,0A1.63,1.63,0,0,1,266.62,324.31Z"/><path class="cls-4" d="M185.38,314.88a1.57,1.57,0,0,1,.66.14,135.2,135.2,0,0,0,21.88,7.52,1.5,1.5,0,0,1,1.13,1.84,1.59,1.59,0,0,1-1.92,1.07,138.84,138.84,0,0,1-22.41-7.71,1.48,1.48,0,0,1-.77-2A1.59,1.59,0,0,1,185.38,314.88Z"/></g><g class="cls-5"><path class="cls-6" d="M170.86,327a.78.78,0,0,1,.33.07c12.54,5.51,38.63,17,73,16.3,31.87-.64,55.07-8.85,66.06-13.68a.8.8,0,0,1,1,.37.73.73,0,0,1-.38,1c-11.11,4.89-34.54,13.18-66.69,13.82-34.72.68-61-10.88-73.67-16.44a.73.73,0,0,1-.38-1A.77.77,0,0,1,170.86,327Z"/></g><path class="cls-4" d="M302,310.19l9.75,15.87-1-.33a12.62,12.62,0,0,1-9-13.46Z"/><path class="cls-4" d="M178.4,310.19l-9.74,15.87,1-.33a12.61,12.61,0,0,0,9-13.46Z"/><path class="cls-4" d="M186.7,311.36a133,133,0,0,0,108.09.62,6.68,6.68,0,0,0,3.1-9.68L263.49,246l-7-11.29-4.65-7.6-7-11a7.24,7.24,0,0,0-11.08,1.52l-50.37,84.1A6.74,6.74,0,0,0,186.7,311.36Z"/><path class="cls-7" d="M286.58,300.05a8.4,8.4,0,0,0-3.09-11.82,9.27,9.27,0,0,0-12.37,3A8.39,8.39,0,0,0,274.21,303,9.25,9.25,0,0,0,286.58,300.05Z"/><path class="cls-8" d="M285.58,299.48a7.31,7.31,0,0,0-2.69-10.29,8.06,8.06,0,0,0-10.77,2.57,7.32,7.32,0,0,0,2.69,10.29A8.07,8.07,0,0,0,285.58,299.48Z"/><path class="cls-9" d="M280.52,290.14l2.76,1.76a.73.73,0,0,1,0,1.21L280.83,295a.71.71,0,0,0-.12,1.06l2.39,2.74a.73.73,0,0,1-.48,1.21l-5.52.79a.75.75,0,0,1-.78-1.12l1.77-2.81a.75.75,0,0,0-.66-1.13l-4,0a.75.75,0,0,1-.69-1.08l2.09-4a.8.8,0,0,1,1.34-.08l1.38,2a.79.79,0,0,0,1.41-.26l.33-1.61A.8.8,0,0,1,280.52,290.14Z"/><path class="cls-10" d="M281.21,291.88h0a.78.78,0,0,1,.11,1.09l-1.39,1.69a.76.76,0,0,0-.09.83l1.36,2.69a.79.79,0,0,1-.59,1.13l-1.25.22a.82.82,0,0,1-1-.87l.34-2.7a.81.81,0,0,0-.71-.88l-2.73-.36a.78.78,0,0,1-.59-1.19l.69-1.11a.84.84,0,0,1,1.28-.16l1.2,1.1a.87.87,0,0,0,1.26-.13L280,292A.85.85,0,0,1,281.21,291.88Z"/><path class="cls-10" d="M282.93,296.14a.65.65,0,0,0-.24-.92.72.72,0,0,0-1,.23.65.65,0,0,0,.24.92A.73.73,0,0,0,282.93,296.14Z"/><path class="cls-10" d="M277.06,297.2a.53.53,0,0,0-.2-.74.58.58,0,0,0-.78.18.52.52,0,0,0,.19.75A.59.59,0,0,0,277.06,297.2Z"/><path class="cls-10" d="M279.05,290.63a.54.54,0,0,0-.2-.75.59.59,0,0,0-.78.19.53.53,0,0,0,.2.75A.59.59,0,0,0,279.05,290.63Z"/><path class="cls-10" d="M274.48,297.9a.78.78,0,0,0-.29-1.1.86.86,0,0,0-1.15.27.78.78,0,0,0,.29,1.1A.86.86,0,0,0,274.48,297.9Z"/><path class="cls-7" d="M262.9,261.56a8.4,8.4,0,0,0-3.09-11.82,9.27,9.27,0,0,0-12.37,3,8.39,8.39,0,0,0,3.09,11.81A9.25,9.25,0,0,0,262.9,261.56Z"/><path class="cls-8" d="M261.9,261a7.3,7.3,0,0,0-2.69-10.28,8.06,8.06,0,0,0-10.77,2.57,7.3,7.3,0,0,0,2.69,10.28A8,8,0,0,0,261.9,261Z"/><path class="cls-9" d="M256.84,251.65l2.76,1.77a.72.72,0,0,1,0,1.2l-2.49,1.85a.72.72,0,0,0-.12,1.06l2.39,2.74a.73.73,0,0,1-.48,1.21l-5.52.79a.75.75,0,0,1-.78-1.12l1.77-2.81a.75.75,0,0,0-.66-1.13l-4,0a.75.75,0,0,1-.69-1.08l2.09-4a.8.8,0,0,1,1.34-.08l1.38,2a.79.79,0,0,0,1.41-.27l.34-1.61A.78.78,0,0,1,256.84,251.65Z"/><path class="cls-10" d="M257.52,253.39h0a.77.77,0,0,1,.12,1.09l-1.39,1.69a.76.76,0,0,0-.09.83l1.36,2.7a.79.79,0,0,1-.6,1.12l-1.25.22a.81.81,0,0,1-1-.87l.33-2.7a.79.79,0,0,0-.7-.88l-2.73-.36A.79.79,0,0,1,251,255l.7-1.11a.84.84,0,0,1,1.28-.16l1.2,1.09a.86.86,0,0,0,1.26-.12l.85-1.19A.86.86,0,0,1,257.52,253.39Z"/><path class="cls-10" d="M259.25,257.65a.65.65,0,0,0-.24-.92.72.72,0,0,0-1,.23.65.65,0,0,0,.24.92A.73.73,0,0,0,259.25,257.65Z"/><path class="cls-10" d="M253.38,258.72a.54.54,0,0,0-.2-.75.58.58,0,0,0-.78.19.53.53,0,0,0,.19.75A.6.6,0,0,0,253.38,258.72Z"/><path class="cls-10" d="M255.37,252.14a.54.54,0,0,0-.2-.75.59.59,0,0,0-.78.19.53.53,0,0,0,.19.75A.6.6,0,0,0,255.37,252.14Z"/><path class="cls-10" d="M250.8,259.41a.78.78,0,0,0-.29-1.1.86.86,0,0,0-1.15.27.78.78,0,0,0,.29,1.1A.86.86,0,0,0,250.8,259.41Z"/><path class="cls-7" d="M221.49,285.44a8.4,8.4,0,0,0-3.09-11.82A9.26,9.26,0,0,0,206,276.57a8.4,8.4,0,0,0,3.09,11.82A9.25,9.25,0,0,0,221.49,285.44Z"/><path class="cls-8" d="M220.49,284.86a7.31,7.31,0,0,0-2.69-10.29A8.05,8.05,0,0,0,207,277.15a7.3,7.3,0,0,0,2.69,10.28A8.05,8.05,0,0,0,220.49,284.86Z"/><path class="cls-9" d="M215.43,275.53l2.76,1.76a.73.73,0,0,1,0,1.21l-2.49,1.85a.71.71,0,0,0-.12,1.06l2.39,2.74a.73.73,0,0,1-.48,1.21l-5.52.79a.75.75,0,0,1-.78-1.12l1.77-2.81a.74.74,0,0,0-.66-1.13l-4,0a.75.75,0,0,1-.68-1.08l2.09-4a.8.8,0,0,1,1.34-.08l1.37,1.95a.79.79,0,0,0,1.41-.27l.34-1.6A.79.79,0,0,1,215.43,275.53Z"/><path class="cls-10" d="M216.11,277.27h0a.77.77,0,0,1,.12,1.09l-1.39,1.69a.76.76,0,0,0-.09.83l1.36,2.7a.79.79,0,0,1-.59,1.12l-1.25.22a.82.82,0,0,1-1-.87l.34-2.7a.81.81,0,0,0-.71-.88l-2.73-.36a.78.78,0,0,1-.59-1.19l.69-1.11a.86.86,0,0,1,1.29-.17l1.2,1.1a.85.85,0,0,0,1.25-.12l.86-1.19A.84.84,0,0,1,216.11,277.27Z"/><path class="cls-10" d="M217.84,281.52a.65.65,0,0,0-.24-.91.72.72,0,0,0-1,.23.65.65,0,0,0,.24.91A.72.72,0,0,0,217.84,281.52Z"/><path class="cls-10" d="M212,282.6a.53.53,0,0,0-.2-.75.58.58,0,0,0-.78.18.52.52,0,0,0,.19.75A.6.6,0,0,0,212,282.6Z"/><path class="cls-10" d="M214,276a.54.54,0,0,0-.2-.75.59.59,0,0,0-.78.19.53.53,0,0,0,.19.75A.6.6,0,0,0,214,276Z"/><path class="cls-10" d="M209.39,283.29a.78.78,0,0,0-.29-1.1.86.86,0,0,0-1.15.27.78.78,0,0,0,.29,1.1A.86.86,0,0,0,209.39,283.29Z"/><path class="cls-7" d="M241.14,241.73a5.73,5.73,0,0,0-2.11-8,6.3,6.3,0,0,0-8.42,2,5.71,5.71,0,0,0,2.1,8.05A6.32,6.32,0,0,0,241.14,241.73Z"/><path class="cls-8" d="M240.46,241.34a5,5,0,0,0-1.84-7,5.48,5.48,0,0,0-7.33,1.75,5,5,0,0,0,1.83,7A5.5,5.5,0,0,0,240.46,241.34Z"/><path class="cls-9" d="M237,235l1.88,1.2a.5.5,0,0,1,0,.82l-1.7,1.26a.49.49,0,0,0-.08.73l1.63,1.86a.5.5,0,0,1-.33.82l-3.76.54a.51.51,0,0,1-.53-.76l1.2-1.92a.51.51,0,0,0-.45-.77l-2.7,0a.5.5,0,0,1-.47-.73l1.42-2.71a.55.55,0,0,1,.92-.06l.93,1.33a.54.54,0,0,0,1-.18l.23-1.09A.54.54,0,0,1,237,235Z"/><path class="cls-10" d="M237.48,236.17h0a.52.52,0,0,1,.07.74l-.94,1.15a.52.52,0,0,0-.07.56l.94,1.84a.53.53,0,0,1-.41.76l-.85.15a.55.55,0,0,1-.66-.59l.22-1.84a.55.55,0,0,0-.48-.6l-1.86-.25a.54.54,0,0,1-.4-.81l.48-.75a.57.57,0,0,1,.87-.11l.82.74a.58.58,0,0,0,.85-.08l.58-.81A.59.59,0,0,1,237.48,236.17Z"/><path class="cls-10" d="M238.65,239.07a.45.45,0,0,0-.16-.63.49.49,0,0,0-.66.16.44.44,0,0,0,.17.62A.49.49,0,0,0,238.65,239.07Z"/><path class="cls-10" d="M234.65,239.79a.37.37,0,0,0-.13-.51.41.41,0,0,0-.54.13.36.36,0,0,0,.14.51A.4.4,0,0,0,234.65,239.79Z"/><path class="cls-10" d="M236,235.32a.36.36,0,0,0-.14-.51.4.4,0,0,0-.53.12.36.36,0,0,0,.13.51A.41.41,0,0,0,236,235.32Z"/><path class="cls-10" d="M232.89,240.27a.52.52,0,0,0-.19-.75.59.59,0,0,0-.79.18.54.54,0,0,0,.2.75A.58.58,0,0,0,232.89,240.27Z"/><path class="cls-7" d="M204.44,302.56a5.7,5.7,0,0,0-2.1-8,6.31,6.31,0,0,0-8.43,2,5.71,5.71,0,0,0,2.11,8A6.29,6.29,0,0,0,204.44,302.56Z"/><path class="cls-8" d="M203.76,302.17a5,5,0,0,0-1.83-7,5.47,5.47,0,0,0-7.33,1.75,5,5,0,0,0,1.83,7A5.48,5.48,0,0,0,203.76,302.17Z"/><path class="cls-9" d="M200.32,295.82l1.87,1.2a.49.49,0,0,1,0,.82l-1.69,1.26a.49.49,0,0,0-.09.72l1.63,1.86a.5.5,0,0,1-.33.83l-3.75.54a.51.51,0,0,1-.53-.76l1.2-1.92a.51.51,0,0,0-.45-.77l-2.71,0a.51.51,0,0,1-.46-.74l1.42-2.71a.54.54,0,0,1,.91-.05l.94,1.33a.54.54,0,0,0,1-.19l.23-1.09A.53.53,0,0,1,200.32,295.82Z"/><path class="cls-10" d="M200.78,297h0a.53.53,0,0,1,.08.74l-.94,1.15a.52.52,0,0,0-.07.57l.93,1.83a.54.54,0,0,1-.4.77l-.85.15a.57.57,0,0,1-.67-.6l.23-1.84a.54.54,0,0,0-.48-.59l-1.86-.25a.53.53,0,0,1-.4-.81l.47-.76a.58.58,0,0,1,.88-.11l.81.75a.58.58,0,0,0,.86-.09l.58-.81A.58.58,0,0,1,200.78,297Z"/><path class="cls-10" d="M202,299.9a.45.45,0,0,0-.17-.63.48.48,0,0,0-.65.16.45.45,0,0,0,.16.62A.5.5,0,0,0,202,299.9Z"/><path class="cls-10" d="M198,300.63a.36.36,0,0,0-.14-.51.4.4,0,0,0-.53.12.36.36,0,0,0,.13.51A.41.41,0,0,0,198,300.63Z"/><path class="cls-10" d="M199.31,296.15a.37.37,0,0,0-.13-.51.4.4,0,0,0-.53.13.35.35,0,0,0,.13.51A.41.41,0,0,0,199.31,296.15Z"/><path class="cls-10" d="M196.2,301.1a.53.53,0,0,0-.19-.75.59.59,0,0,0-.79.19.53.53,0,0,0,.2.74A.57.57,0,0,0,196.2,301.1Z"/><path class="cls-11" d="M216.54,252.1s4,13.1,10.41,18.76,10.2,4.61,13,1.74,3.58-6.49-2.88-12.15S216.54,252.1,216.54,252.1Z"/><path class="cls-12" d="M216.82,252.41a7.32,7.32,0,0,1,1.36.26,13.34,13.34,0,0,1,1.51.48l.9.36,1,.45c.67.32,1.39.7,2.13,1.13s1.5.91,2.25,1.45,1.54,1.1,2.31,1.69,1.51,1.24,2.27,1.87,1.47,1.31,2.21,1.94a27.28,27.28,0,0,1,2,2,21.7,21.7,0,0,1,1.7,2c.51.67,1,1.31,1.39,1.91s.75,1.18,1.06,1.68.55,1,.75,1.34c.39.75.59,1.2.59,1.2l-.18.12s-.4-.3-1-.87c-.32-.29-.71-.64-1.14-1.05L236.49,269c-.52-.5-1.08-1.05-1.64-1.65s-1.18-1.21-1.79-1.87-1.18-1.38-1.81-2.08-1.25-1.42-1.93-2.09-1.34-1.36-2.06-2-1.38-1.26-2.09-1.81-1.39-1.09-2-1.59-1.32-.92-1.94-1.3c-.31-.19-.61-.36-.89-.54l-.84-.43a14.59,14.59,0,0,0-1.39-.62,7,7,0,0,0-1.27-.4Z"/><path class="cls-11" d="M266.59,271.92s-7.46,1.9-10.74,5.18-2.73,5.23-1.13,6.7,3.64,1.92,6.92-1.36S266.59,271.92,266.59,271.92Z"/><path class="cls-12" d="M266.41,272.06a3.45,3.45,0,0,1-.16.71,5.5,5.5,0,0,1-.29.77l-.21.46-.27.5c-.19.35-.41.71-.66,1.09s-.54.77-.85,1.15-.64.78-1,1.17-.72.78-1.09,1.16-.76.74-1.12,1.12a13.7,13.7,0,0,1-1.15,1,12.21,12.21,0,0,1-1.16.85c-.38.26-.75.49-1.09.7s-.68.37-1,.53-.55.27-.77.37c-.43.2-.69.3-.69.3l-.06-.1s.17-.2.51-.53l.6-.57.8-.72c.29-.26.61-.54,1-.83l1.08-.9c.38-.3.79-.6,1.19-.92s.82-.63,1.21-1,.79-.68,1.15-1,.72-.71,1.05-1.06.63-.71.92-1.05.54-.67.76-1l.31-.45c.09-.15.18-.29.25-.43a7.14,7.14,0,0,0,.37-.71,3.38,3.38,0,0,0,.24-.65Z"/><path class="cls-11" d="M230.64,293.17s-7.46,1.9-10.74,5.18-2.73,5.22-1.13,6.69,3.64,1.93,6.92-1.35S230.64,293.17,230.64,293.17Z"/><path class="cls-12" d="M230.46,293.31a3.3,3.3,0,0,1-.16.7,5.5,5.5,0,0,1-.29.77c-.06.15-.14.3-.21.47s-.18.32-.27.5c-.19.34-.41.71-.66,1.08s-.54.77-.85,1.16-.64.77-1,1.17-.72.77-1.09,1.15-.75.75-1.12,1.12a13.7,13.7,0,0,1-1.15,1,12.37,12.37,0,0,1-1.16.86c-.38.25-.75.49-1.09.69a10.85,10.85,0,0,1-1,.53l-.77.38-.68.29-.07-.09s.18-.21.51-.53c.16-.17.37-.36.6-.58l.81-.72.95-.83c.35-.28.7-.59,1.08-.9s.8-.59,1.19-.91.83-.63,1.21-1,.79-.68,1.15-1,.73-.7,1.05-1.06.63-.71.92-1.05.54-.67.76-1l.31-.46.26-.43c.15-.27.28-.51.37-.71a3.69,3.69,0,0,0,.23-.65Z"/><path class="cls-11" d="M247.08,282.74s11.18,9.63,13.82,18.1-.11,11.36-4.25,12.57-8.11.25-10.75-8.22S247.08,282.74,247.08,282.74Z"/><path class="cls-12" d="M247.26,283.14a7.38,7.38,0,0,0-.38,1.36,11.66,11.66,0,0,0-.21,1.59c0,.31,0,.64-.07,1v1.09c0,.76.06,1.59.15,2.46s.21,1.78.4,2.71.38,1.9.61,2.87.53,1.94.81,2.92.62,1.94.91,2.9a29.11,29.11,0,0,0,1,2.76,24.69,24.69,0,0,0,1.22,2.47c.43.76.85,1.48,1.25,2.13s.83,1.23,1.19,1.74.7.94,1,1.3c.57.7.92,1.09.92,1.09l.21-.11s-.12-.5-.39-1.35c-.14-.43-.31-.93-.52-1.51s-.46-1.22-.73-1.92-.55-1.46-.88-2.25-.67-1.63-1-2.48-.83-1.71-1.22-2.6-.85-1.79-1.19-2.72-.74-1.85-1-2.78-.62-1.83-.84-2.73-.44-1.76-.63-2.59-.31-1.62-.4-2.36c0-.36-.08-.72-.12-1.05s0-.66,0-1a12.81,12.81,0,0,1,0-1.55,6.28,6.28,0,0,1,.19-1.33Z"/><path class="cls-2" d="M87.78,193.63a4.26,4.26,0,0,0-4.35,4.28,148.68,148.68,0,0,0,21.84,73.15A157,157,0,0,0,156,322.4a4.47,4.47,0,0,0,6.18-1.41l73-121.49a4.16,4.16,0,0,0-3.79-6.22Z"/><g class="cls-3"><path class="cls-4" d="M161,299.16a1.44,1.44,0,0,1-.07,1.61,1.62,1.62,0,0,1-2.19.37,133.83,133.83,0,0,1-18.23-14.63,1.46,1.46,0,0,1,0-2.13,1.62,1.62,0,0,1,2.22,0,130.32,130.32,0,0,0,17.8,14.29A1.5,1.5,0,0,1,161,299.16Z"/><path class="cls-4" d="M137.12,278.75a1.46,1.46,0,0,1-.32,1.88,1.63,1.63,0,0,1-2.22-.14,127.17,127.17,0,0,1-25.81-42.43,1.49,1.49,0,0,1,1-1.91,1.59,1.59,0,0,1,2,.92,124.25,124.25,0,0,0,25.2,41.44A1.88,1.88,0,0,1,137.12,278.75Z"/><path class="cls-4" d="M104.86,206.92a1.51,1.51,0,0,1,.2.62,120.58,120.58,0,0,0,4.18,21.85,1.5,1.5,0,0,1-1.1,1.85,1.58,1.58,0,0,1-1.93-1.05,123.67,123.67,0,0,1-4.28-22.38,1.54,1.54,0,0,1,1.43-1.63A1.63,1.63,0,0,1,104.86,206.92Z"/></g><g class="cls-5"><path class="cls-6" d="M86.62,201a.76.76,0,0,1,.1.3c1.31,13.13,4,40.44,21.9,68.46,16.58,26,35.66,41,45.56,47.69a.73.73,0,0,1,.19,1.05.8.8,0,0,1-1.09.18c-10-6.72-29.27-21.9-46-48.13-18.06-28.34-20.81-55.87-22.13-69.1a.77.77,0,0,1,.71-.82A.79.79,0,0,1,86.62,201Z"/></g><path class="cls-4" d="M167.68,300.89l-9.48,16-.22-1a12.5,12.5,0,0,1,7.69-14.16Z"/><path class="cls-4" d="M105.6,198.81l-19.26-.08.82.69a13.71,13.71,0,0,0,16.69.65Z"/><path class="cls-4" d="M108.7,206.26c3.2,37,23.7,69.33,53.73,89.57a7.33,7.33,0,0,0,10.32-2.31l33.68-56.67,6.72-11.42,4.56-7.65,6.45-11.27c1.16-4.07-2.11-8.42-6.94-8.4l-101.44.64A7,7,0,0,0,108.7,206.26Z"/><path class="cls-7" d="M169.11,283.06a8.62,8.62,0,1,0-8.88-8.74A8.84,8.84,0,0,0,169.11,283.06Z"/><path class="cls-8" d="M169.13,281.94a7.5,7.5,0,1,0-7.74-7.6A7.69,7.69,0,0,0,169.13,281.94Z"/><path class="cls-9" d="M175,273.07l-.21,3.17a.78.78,0,0,1-1.07.64l-2.93-1.13a.79.79,0,0,0-1,.43l-1.27,3.35a.81.81,0,0,1-1.35.22l-3.48-4.16a.74.74,0,0,1,.62-1.21l3.44.05a.74.74,0,0,0,.68-1.11l-2-3.3a.74.74,0,0,1,.63-1.11l4.65-.27a.75.75,0,0,1,.75,1.07l-1.08,2.11a.76.76,0,0,0,.95,1l1.62-.53A.78.78,0,0,1,175,273.07Z"/><path class="cls-10" d="M173.81,274.52h0a.82.82,0,0,1-.93.63l-2.23-.29a.85.85,0,0,0-.8.34l-1.75,2.48a.85.85,0,0,1-1.32.07l-.82-.92a.77.77,0,0,1,.29-1.24l2.62-1.08a.78.78,0,0,0,.43-1l-1-2.43A.8.8,0,0,1,169,270l1.36,0a.8.8,0,0,1,.79,1l-.39,1.54a.8.8,0,0,0,.74,1l1.51.1A.8.8,0,0,1,173.81,274.52Z"/><ellipse class="cls-10" cx="170.84" cy="277.4" rx="0.67" ry="0.7" transform="translate(-109.14 443.98) rotate(-89.12)"/><ellipse class="cls-10" cx="166.91" cy="273.2" rx="0.55" ry="0.57" transform="translate(-108.67 436.13) rotate(-89.17)"/><ellipse class="cls-10" cx="173.85" cy="271.56" rx="0.55" ry="0.57" transform="translate(-100.36 441.21) rotate(-89.12)"/><ellipse class="cls-10" cx="164.99" cy="271.19" rx="0.8" ry="0.84" transform="translate(-108.66 432.07) rotate(-89.13)"/><path class="cls-7" d="M192.07,244.17a8.62,8.62,0,1,0-8.89-8.74A8.83,8.83,0,0,0,192.07,244.17Z"/><path class="cls-8" d="M192.08,243.05a7.5,7.5,0,1,0-7.73-7.6A7.7,7.7,0,0,0,192.08,243.05Z"/><path class="cls-9" d="M198,234.18l-.21,3.17a.78.78,0,0,1-1.07.64l-2.93-1.13a.79.79,0,0,0-1,.44l-1.27,3.35a.8.8,0,0,1-1.34.21l-3.49-4.16a.74.74,0,0,1,.62-1.21l3.44,0a.75.75,0,0,0,.69-1.11l-2-3.3a.74.74,0,0,1,.63-1.11l4.65-.27a.75.75,0,0,1,.75,1.07l-1.08,2.11a.76.76,0,0,0,1,1l1.62-.53A.77.77,0,0,1,198,234.18Z"/><path class="cls-10" d="M196.76,235.63h0a.84.84,0,0,1-.93.64l-2.22-.3a.83.83,0,0,0-.8.34l-1.76,2.48a.84.84,0,0,1-1.31.07l-.83-.92a.78.78,0,0,1,.3-1.24l2.61-1.08a.78.78,0,0,0,.44-1l-1-2.43a.8.8,0,0,1,.78-1.09l1.35,0a.8.8,0,0,1,.8,1l-.4,1.54a.8.8,0,0,0,.75,1l1.51.1A.8.8,0,0,1,196.76,235.63Z"/><ellipse class="cls-10" cx="193.8" cy="238.51" rx="0.67" ry="0.7" transform="translate(-47.65 428.64) rotate(-89.12)"/><ellipse class="cls-10" cx="189.87" cy="234.35" rx="0.55" ry="0.57" transform="translate(-47.38 420.58) rotate(-89.12)"/><ellipse class="cls-10" cx="196.83" cy="232.7" rx="0.55" ry="0.57" transform="translate(-39.02 425.74) rotate(-89.07)"/><ellipse class="cls-10" cx="187.96" cy="232.28" rx="0.8" ry="0.84" transform="translate(-46.92 416.99) rotate(-89.2)"/><path class="cls-7" d="M149.22,241.7a8.62,8.62,0,1,0-8.88-8.73A8.83,8.83,0,0,0,149.22,241.7Z"/><path class="cls-8" d="M149.24,240.59a7.5,7.5,0,1,0-7.74-7.6A7.69,7.69,0,0,0,149.24,240.59Z"/><path class="cls-9" d="M155.14,231.72l-.21,3.17a.77.77,0,0,1-1.06.64l-2.93-1.13a.8.8,0,0,0-1,.43l-1.27,3.35a.8.8,0,0,1-1.34.22l-3.48-4.16a.74.74,0,0,1,.61-1.21l3.44.05a.75.75,0,0,0,.69-1.12l-2-3.29a.75.75,0,0,1,.63-1.11l4.66-.27a.75.75,0,0,1,.75,1.07l-1.08,2.11a.76.76,0,0,0,.95,1l1.62-.53A.76.76,0,0,1,155.14,231.72Z"/><path class="cls-10" d="M153.92,233.16h0a.83.83,0,0,1-.93.64l-2.23-.29a.85.85,0,0,0-.8.34l-1.75,2.48a.86.86,0,0,1-1.32.07l-.83-.92a.78.78,0,0,1,.3-1.24l2.62-1.08a.79.79,0,0,0,.43-1l-1-2.43a.8.8,0,0,1,.78-1.09l1.36,0a.79.79,0,0,1,.79,1l-.39,1.54a.79.79,0,0,0,.74,1l1.51.11A.8.8,0,0,1,153.92,233.16Z"/><ellipse class="cls-10" cx="150.93" cy="236.07" rx="0.67" ry="0.7" transform="translate(-87.23 383.68) rotate(-89.2)"/><ellipse class="cls-10" cx="147" cy="231.86" rx="0.55" ry="0.57" transform="translate(-87.1 375.28) rotate(-89.12)"/><ellipse class="cls-10" cx="153.97" cy="230.21" rx="0.55" ry="0.57" transform="translate(-78.71 380.43) rotate(-89.07)"/><ellipse class="cls-10" cx="145.1" cy="229.83" rx="0.8" ry="0.84" transform="translate(-86.81 371.59) rotate(-89.17)"/><path class="cls-7" d="M199.09,216.23a5.87,5.87,0,1,0-6.05-5.94A6,6,0,0,0,199.09,216.23Z"/><path class="cls-8" d="M199.1,215.48a5.12,5.12,0,1,0-5.27-5.18A5.24,5.24,0,0,0,199.1,215.48Z"/><path class="cls-9" d="M203.12,209.44l-.14,2.15a.53.53,0,0,1-.73.44l-2-.77a.54.54,0,0,0-.7.29l-.87,2.28a.54.54,0,0,1-.91.15l-2.37-2.83a.51.51,0,0,1,.42-.83l2.34,0a.5.5,0,0,0,.47-.75l-1.34-2.25a.5.5,0,0,1,.43-.75l3.17-.19a.51.51,0,0,1,.51.73l-.74,1.44a.52.52,0,0,0,.65.7l1.1-.36A.53.53,0,0,1,203.12,209.44Z"/><path class="cls-10" d="M202.29,210.42h0a.57.57,0,0,1-.64.43l-1.51-.2a.59.59,0,0,0-.55.23l-1.19,1.69a.58.58,0,0,1-.9.05l-.56-.63a.52.52,0,0,1,.2-.84l1.78-.74a.53.53,0,0,0,.3-.7l-.71-1.65a.55.55,0,0,1,.53-.75l.93,0a.54.54,0,0,1,.54.66l-.27,1a.55.55,0,0,0,.51.67l1,.07A.55.55,0,0,1,202.29,210.42Z"/><path class="cls-10" d="M200.28,212a.45.45,0,0,1,.46.46.47.47,0,0,1-.48.45.48.48,0,0,1-.47-.47A.46.46,0,0,1,200.28,212Z"/><ellipse class="cls-10" cx="197.58" cy="209.57" rx="0.37" ry="0.39" transform="translate(-15.2 403.69) rotate(-89.06)"/><ellipse class="cls-10" cx="202.34" cy="208.38" rx="0.37" ry="0.39" transform="translate(-9.57 407.03) rotate(-88.99)"/><ellipse class="cls-10" cx="196.27" cy="208.14" rx="0.55" ry="0.57" transform="translate(-14.7 401.37) rotate(-89.17)"/><path class="cls-11" d="M177.34,201.13s-9.87,9.84-11.74,18,.93,10.73,4.94,11.6,7.67-.3,9.55-8.48S177.34,201.13,177.34,201.13Z"/><path class="cls-12" d="M177.2,201.52a7.21,7.21,0,0,1,.46,1.25,13.41,13.41,0,0,1,.32,1.49c0,.29.08.6.12.92s.06.67.09,1c0,.72.06,1.51,0,2.33s-.07,1.7-.18,2.59-.22,1.82-.37,2.76-.36,1.87-.55,2.81-.45,1.87-.65,2.8a27,27,0,0,1-.77,2.68,19.54,19.54,0,0,1-1,2.41c-.35.76-.69,1.46-1,2.11s-.69,1.21-1,1.72-.59.93-.84,1.29c-.47.7-.78,1.09-.78,1.09l-.2-.08s.07-.49.27-1.31c.09-.41.22-.9.37-1.46s.35-1.18.55-1.87.42-1.41.67-2.18.51-1.58.8-2.41.66-1.67,1-2.54.66-1.75.92-2.65.56-1.79.76-2.69.45-1.78.6-2.64.28-1.7.4-2.5.17-1.55.21-2.25c0-.35,0-.68,0-1s0-.62,0-.91c0-.56-.07-1.06-.14-1.47a6.76,6.76,0,0,0-.28-1.24Z"/><path class="cls-11" d="M184.54,252.42s-5.47-5.21-10.09-6.27-6.1.37-6.63,2.43.09,4,4.71,5S184.54,252.42,184.54,252.42Z"/><path class="cls-12" d="M184.32,252.34a3.86,3.86,0,0,1-.72.23,6.64,6.64,0,0,1-.84.14l-.53.06-.58,0c-.41,0-.86,0-1.32,0s-1-.06-1.47-.12-1-.14-1.56-.23-1.05-.2-1.59-.31-1.05-.25-1.57-.37a13.31,13.31,0,0,1-1.51-.43,12,12,0,0,1-1.36-.52l-1.18-.56c-.37-.17-.68-.37-1-.53l-.72-.45a6.75,6.75,0,0,1-.61-.42l.05-.1s.27,0,.74.15l.82.22,1,.3c.39.1.8.23,1.23.37l1.36.44c.47.16.94.35,1.43.52s1,.37,1.49.51,1,.31,1.52.42,1,.25,1.49.34,1,.16,1.41.24.88.1,1.27.13l.57,0h.52a6.31,6.31,0,0,0,.83-.06,4,4,0,0,0,.71-.13Z"/><path class="cls-11" d="M164.94,241.74s-3.1,14.07-9.44,20.5S145.15,267.86,142,265s-4.3-6.56,2-13S164.94,241.74,164.94,241.74Z"/><path class="cls-12" d="M164.67,242.09a8.15,8.15,0,0,0-1.42.37,13.37,13.37,0,0,0-1.54.62l-.92.44-1,.55c-.69.39-1.41.84-2.15,1.35s-1.51,1.07-2.26,1.69-1.52,1.27-2.29,1.95-1.49,1.42-2.24,2.13-1.44,1.49-2.16,2.22a27,27,0,0,0-2,2.23,21.06,21.06,0,0,0-1.62,2.25c-.48.73-.92,1.44-1.31,2.1s-.69,1.3-1,1.85-.5,1.06-.67,1.47c-.36.82-.53,1.31-.53,1.31l.19.12s.4-.36,1-1c.32-.32.69-.72,1.11-1.18l1.38-1.57c.51-.56,1-1.19,1.59-1.86s1.14-1.36,1.72-2.1,1.13-1.54,1.74-2.32,1.2-1.59,1.87-2.34,1.3-1.54,2-2.24,1.35-1.43,2-2.06,1.38-1.25,2-1.83,1.32-1.06,1.93-1.51l.9-.63.84-.51a15,15,0,0,1,1.42-.76,7.13,7.13,0,0,1,1.3-.52Z"/><path class="cls-11" d="M144.56,208.86s-3.1,14.07-9.44,20.51-10.35,5.61-13.52,2.79-4.3-6.56,2-13S144.56,208.86,144.56,208.86Z"/><path class="cls-12" d="M144.29,209.21a7.91,7.91,0,0,0-1.42.37,13.45,13.45,0,0,0-1.55.62l-.92.44-1,.55c-.68.39-1.4.84-2.15,1.35s-1.5,1.07-2.25,1.69-1.53,1.27-2.29,2-1.49,1.42-2.24,2.14-1.44,1.48-2.16,2.2a28.89,28.89,0,0,0-2,2.24,22.71,22.71,0,0,0-1.63,2.25c-.48.73-.91,1.44-1.3,2.1s-.7,1.3-1,1.85-.5,1.06-.68,1.47c-.36.82-.52,1.31-.52,1.31l.19.11s.4-.35,1-1c.32-.32.69-.72,1.11-1.18l1.38-1.57c.51-.56,1-1.19,1.59-1.86s1.13-1.36,1.72-2.1,1.13-1.54,1.74-2.31,1.2-1.6,1.87-2.35,1.29-1.54,2-2.24,1.36-1.43,2.06-2.06,1.38-1.25,2-1.83,1.31-1.06,1.93-1.51l.9-.63.84-.51a13.84,13.84,0,0,1,1.42-.76,7.13,7.13,0,0,1,1.3-.52Z"/><path class="cls-2" d="M392.57,193.63a4.26,4.26,0,0,1,4.35,4.28,148.68,148.68,0,0,1-21.84,73.15,157.14,157.14,0,0,1-50.71,51.34,4.47,4.47,0,0,1-6.18-1.41l-73-121.49a4.15,4.15,0,0,1,3.78-6.22Z"/><g class="cls-3"><path class="cls-4" d="M319.4,299.16a1.44,1.44,0,0,0,.07,1.61,1.6,1.6,0,0,0,2.18.37,133.22,133.22,0,0,0,18.23-14.63,1.46,1.46,0,0,0,0-2.13,1.62,1.62,0,0,0-2.22,0,129.8,129.8,0,0,1-17.81,14.29A1.47,1.47,0,0,0,319.4,299.16Z"/><path class="cls-4" d="M343.23,278.75a1.44,1.44,0,0,0,.32,1.88,1.63,1.63,0,0,0,2.22-.14,127,127,0,0,0,25.8-42.43,1.47,1.47,0,0,0-1-1.91,1.58,1.58,0,0,0-2,.92,124.11,124.11,0,0,1-25.21,41.44Z"/><path class="cls-4" d="M375.49,206.92a1.52,1.52,0,0,0-.21.62,119.7,119.7,0,0,1-4.17,21.85,1.5,1.5,0,0,0,1.09,1.85,1.59,1.59,0,0,0,1.94-1.05,122.79,122.79,0,0,0,4.27-22.38,1.53,1.53,0,0,0-1.42-1.63A1.62,1.62,0,0,0,375.49,206.92Z"/></g><g class="cls-5"><path class="cls-6" d="M393.73,201a.76.76,0,0,0-.1.3c-1.31,13.13-4,40.44-21.91,68.46-16.57,26-35.65,41-45.56,47.69a.73.73,0,0,0-.18,1.05.8.8,0,0,0,1.09.18c10-6.72,29.27-21.9,46-48.13,18.06-28.34,20.8-55.87,22.12-69.1a.76.76,0,0,0-.7-.82A.79.79,0,0,0,393.73,201Z"/></g><path class="cls-4" d="M312.67,300.89l9.47,16,.23-1a12.5,12.5,0,0,0-7.69-14.16Z"/><path class="cls-4" d="M374.75,198.81l19.26-.08-.82.69a13.71,13.71,0,0,1-16.69.65Z"/><path class="cls-4" d="M371.64,206.26c-3.19,37-23.69,69.33-53.73,89.57a7.32,7.32,0,0,1-10.31-2.31l-33.68-56.67-6.73-11.42-4.55-7.65-6.45-11.27c-1.17-4.07,2.1-8.42,6.94-8.4l101.43.64A7,7,0,0,1,371.64,206.26Z"/><path class="cls-7" d="M311.23,283.06a8.63,8.63,0,1,1,8.89-8.74A8.83,8.83,0,0,1,311.23,283.06Z"/><path class="cls-8" d="M311.22,281.94a7.5,7.5,0,1,1,7.73-7.6A7.7,7.7,0,0,1,311.22,281.94Z"/><path class="cls-9" d="M305.31,273.07l.21,3.17a.78.78,0,0,0,1.07.64l2.93-1.13a.79.79,0,0,1,1,.43l1.27,3.35a.8.8,0,0,0,1.34.22l3.49-4.16a.74.74,0,0,0-.62-1.21l-3.44.05a.74.74,0,0,1-.69-1.11l2-3.3a.75.75,0,0,0-.63-1.11l-4.66-.27a.74.74,0,0,0-.74,1.07l1.08,2.11a.76.76,0,0,1-1,1l-1.62-.53A.77.77,0,0,0,305.31,273.07Z"/><path class="cls-10" d="M306.54,274.52h0a.82.82,0,0,0,.93.63l2.23-.29a.85.85,0,0,1,.8.34l1.75,2.48a.85.85,0,0,0,1.32.07l.82-.92a.78.78,0,0,0-.3-1.24l-2.61-1.08a.79.79,0,0,1-.44-1l1-2.43a.8.8,0,0,0-.78-1.09L310,270a.8.8,0,0,0-.79,1l.39,1.54a.8.8,0,0,1-.74,1l-1.52.1A.8.8,0,0,0,306.54,274.52Z"/><ellipse class="cls-10" cx="309.52" cy="277.39" rx="0.7" ry="0.67" transform="translate(-4.23 4.8) rotate(-0.88)"/><ellipse class="cls-10" cx="313.44" cy="273.22" rx="0.57" ry="0.55" transform="translate(-4.17 4.86) rotate(-0.88)"/><ellipse class="cls-10" cx="306.49" cy="271.54" rx="0.57" ry="0.55" transform="translate(-3.93 4.5) rotate(-0.84)"/><ellipse class="cls-10" cx="315.34" cy="271.19" rx="0.84" ry="0.8" transform="translate(-4.38 5.18) rotate(-0.93)"/><path class="cls-7" d="M323.84,261.53a8.62,8.62,0,1,1,12-3.45A8.84,8.84,0,0,1,323.84,261.53Z"/><path class="cls-8" d="M324.36,260.54a7.5,7.5,0,1,1,10.42-3A7.69,7.69,0,0,1,324.36,260.54Z"/><path class="cls-9" d="M323.38,249.93l-1.32,2.89a.78.78,0,0,0,.64,1.07l3.11.4a.78.78,0,0,1,.69.87l-.47,3.55a.79.79,0,0,0,1.08.82l5-2a.74.74,0,0,0,0-1.36l-3-1.6a.75.75,0,0,1-.08-1.31l3.3-2a.73.73,0,0,0,0-1.27l-4-2.46a.75.75,0,0,0-1.17.59l-.05,2.37a.76.76,0,0,1-1.33.45l-1.18-1.23A.77.77,0,0,0,323.38,249.93Z"/><path class="cls-10" d="M323.78,251.79h0a.82.82,0,0,0,.51,1l2.1.8a.82.82,0,0,1,.54.68l.36,3a.85.85,0,0,0,1.12.69l1.17-.42a.77.77,0,0,0,.33-1.23l-1.79-2.2a.78.78,0,0,1,.11-1.11l2.07-1.64a.79.79,0,0,0-.17-1.33l-1.2-.63a.8.8,0,0,0-1.16.48l-.39,1.55a.8.8,0,0,1-1.12.5l-1.38-.63A.79.79,0,0,0,323.78,251.79Z"/><ellipse class="cls-10" cx="325.04" cy="255.75" rx="0.67" ry="0.7" transform="translate(-52.05 425.65) rotate(-62.45)"/><ellipse class="cls-10" cx="330.47" cy="253.96" rx="0.55" ry="0.57" transform="translate(-47.55 429.46) rotate(-62.45)"/><ellipse class="cls-10" cx="325.15" cy="249.15" rx="0.54" ry="0.57" transform="translate(-46.21 422.03) rotate(-62.43)"/><ellipse class="cls-10" cx="333.09" cy="253.06" rx="0.8" ry="0.84" transform="translate(-45.15 431.73) rotate(-62.51)"/><path class="cls-7" d="M288.28,244.17a8.62,8.62,0,1,1,8.89-8.74A8.85,8.85,0,0,1,288.28,244.17Z"/><path class="cls-8" d="M288.26,243.05a7.5,7.5,0,1,1,7.74-7.6A7.69,7.69,0,0,1,288.26,243.05Z"/><path class="cls-9" d="M282.36,234.18l.21,3.17a.77.77,0,0,0,1.06.64l2.93-1.13a.78.78,0,0,1,1,.44l1.28,3.35a.8.8,0,0,0,1.34.21l3.48-4.16a.74.74,0,0,0-.62-1.21l-3.43,0a.74.74,0,0,1-.69-1.11l2-3.3a.74.74,0,0,0-.63-1.11l-4.65-.27a.75.75,0,0,0-.75,1.07l1.08,2.11a.76.76,0,0,1-.95,1l-1.62-.53A.77.77,0,0,0,282.36,234.18Z"/><path class="cls-10" d="M283.59,235.63h0a.83.83,0,0,0,.93.64l2.22-.3a.83.83,0,0,1,.8.34l1.76,2.48a.84.84,0,0,0,1.31.07l.83-.92a.78.78,0,0,0-.3-1.24l-2.61-1.08a.78.78,0,0,1-.44-1l1-2.43a.8.8,0,0,0-.78-1.09l-1.35,0a.81.81,0,0,0-.8,1l.4,1.54a.8.8,0,0,1-.75,1l-1.51.1A.8.8,0,0,0,283.59,235.63Z"/><ellipse class="cls-10" cx="286.54" cy="238.53" rx="0.7" ry="0.67" transform="translate(-3.29 4.01) rotate(-0.8)"/><ellipse class="cls-10" cx="290.46" cy="234.36" rx="0.57" ry="0.55" transform="translate(-3.76 4.74) rotate(-0.93)"/><ellipse class="cls-10" cx="283.53" cy="232.67" rx="0.57" ry="0.55" transform="translate(-3.55 4.39) rotate(-0.88)"/><ellipse class="cls-10" cx="292.41" cy="232.3" rx="0.84" ry="0.8" transform="translate(-3.61 4.62) rotate(-0.9)"/><path class="cls-7" d="M342.46,237.68a8.62,8.62,0,1,1,8.89-8.74A8.83,8.83,0,0,1,342.46,237.68Z"/><path class="cls-8" d="M342.45,236.57a7.51,7.51,0,1,1,7.73-7.61A7.7,7.7,0,0,1,342.45,236.57Z"/><path class="cls-9" d="M336.54,227.7l.21,3.16a.78.78,0,0,0,1.07.64l2.93-1.13a.78.78,0,0,1,1,.44l1.27,3.35a.81.81,0,0,0,1.35.21l3.48-4.16a.74.74,0,0,0-.62-1.21l-3.44.05a.75.75,0,0,1-.69-1.11l2-3.3a.74.74,0,0,0-.63-1.11l-4.65-.27a.75.75,0,0,0-.75,1.07l1.08,2.11a.76.76,0,0,1-.95,1l-1.62-.52A.77.77,0,0,0,336.54,227.7Z"/><path class="cls-10" d="M337.77,229.14h0a.84.84,0,0,0,.93.64l2.23-.3a.85.85,0,0,1,.8.34l1.75,2.48a.85.85,0,0,0,1.31.08l.83-.93a.78.78,0,0,0-.3-1.24l-2.61-1.08a.78.78,0,0,1-.44-1l1-2.44a.8.8,0,0,0-.78-1.09l-1.35,0a.8.8,0,0,0-.79,1l.39,1.54a.8.8,0,0,1-.74,1l-1.51.1A.81.81,0,0,0,337.77,229.14Z"/><ellipse class="cls-10" cx="340.71" cy="232.04" rx="0.7" ry="0.67" transform="translate(-3.35 5) rotate(-0.84)"/><ellipse class="cls-10" cx="344.66" cy="227.85" rx="0.57" ry="0.55" transform="translate(-3.47 5.33) rotate(-0.88)"/><ellipse class="cls-10" cx="337.71" cy="226.19" rx="0.57" ry="0.55" transform="translate(-3.44 5.23) rotate(-0.88)"/><ellipse class="cls-10" cx="346.59" cy="225.81" rx="0.84" ry="0.8" transform="translate(-3.63 5.68) rotate(-0.93)"/><path class="cls-7" d="M281.26,216.23a5.87,5.87,0,1,1,6.05-5.94A6,6,0,0,1,281.26,216.23Z"/><path class="cls-8" d="M281.24,215.48a5.12,5.12,0,1,1,5.28-5.18A5.24,5.24,0,0,1,281.24,215.48Z"/><path class="cls-9" d="M277.22,209.44l.14,2.15a.53.53,0,0,0,.73.44l2-.77a.53.53,0,0,1,.7.29l.87,2.28a.54.54,0,0,0,.91.15l2.37-2.83a.51.51,0,0,0-.42-.83l-2.34,0a.5.5,0,0,1-.47-.75l1.34-2.25a.5.5,0,0,0-.43-.75l-3.17-.19a.51.51,0,0,0-.51.73l.74,1.44a.52.52,0,0,1-.65.7l-1.1-.36A.53.53,0,0,0,277.22,209.44Z"/><path class="cls-10" d="M278.06,210.42h0a.55.55,0,0,0,.63.43l1.52-.2a.59.59,0,0,1,.54.23l1.2,1.69a.57.57,0,0,0,.89.05l.57-.63a.53.53,0,0,0-.21-.84l-1.78-.74a.54.54,0,0,1-.3-.7l.71-1.65a.55.55,0,0,0-.53-.75l-.92,0a.54.54,0,0,0-.54.66l.27,1a.55.55,0,0,1-.51.67l-1,.07A.55.55,0,0,0,278.06,210.42Z"/><ellipse class="cls-10" cx="280.09" cy="212.43" rx="0.48" ry="0.46" transform="translate(-3.45 4.62) rotate(-0.94)"/><ellipse class="cls-10" cx="282.78" cy="209.54" rx="0.39" ry="0.37" transform="translate(-3.13 4.29) rotate(-0.87)"/><ellipse class="cls-10" cx="278.03" cy="208.43" rx="0.39" ry="0.37" transform="translate(-3.1 4.19) rotate(-0.86)"/><ellipse class="cls-10" cx="284.05" cy="208.15" rx="0.57" ry="0.55" transform="translate(-2.99 4.14) rotate(-0.83)"/><path class="cls-11" d="M303,201.13s9.86,9.84,11.74,18-.94,10.73-4.94,11.6-7.68-.3-9.55-8.48S303,201.13,303,201.13Z"/><path class="cls-12" d="M303.14,201.52a6.8,6.8,0,0,0-.45,1.25,11.47,11.47,0,0,0-.32,1.49c0,.29-.08.6-.13.92s-.05.67-.08,1c0,.72-.06,1.51,0,2.33a23.51,23.51,0,0,0,.18,2.59c.07.9.22,1.82.37,2.76s.36,1.87.55,2.81.45,1.87.65,2.8a24.51,24.51,0,0,0,.77,2.68,21.23,21.23,0,0,0,1,2.41c.35.76.7,1.46,1,2.11s.69,1.21,1,1.72l.84,1.29c.48.7.79,1.09.79,1.09l.2-.08s-.08-.49-.27-1.31c-.1-.41-.22-.9-.38-1.46l-.54-1.87c-.19-.68-.42-1.41-.68-2.18s-.51-1.58-.8-2.41-.65-1.67-1-2.54-.67-1.75-.93-2.65-.56-1.79-.76-2.69-.45-1.78-.6-2.64-.28-1.7-.4-2.5-.17-1.55-.2-2.25c0-.35,0-.68,0-1s0-.62,0-.91a13.39,13.39,0,0,1,.14-1.47,6.38,6.38,0,0,1,.27-1.24Z"/><path class="cls-11" d="M295.81,252.42s5.47-5.21,10.09-6.27,6.09.37,6.62,2.43-.08,4-4.7,5S295.81,252.42,295.81,252.42Z"/><path class="cls-12" d="M296,252.34a3.89,3.89,0,0,0,.71.23,6.83,6.83,0,0,0,.85.14l.52.06.59,0q.62,0,1.32,0t1.47-.12c.51-.05,1-.14,1.56-.23s1.05-.2,1.59-.31,1.05-.25,1.58-.37a13.75,13.75,0,0,0,1.5-.43,12,12,0,0,0,1.36-.52l1.18-.56c.37-.17.68-.37,1-.53l.72-.45a6.75,6.75,0,0,0,.61-.42l-.05-.1s-.27,0-.73.15l-.83.22-1.05.3c-.39.1-.8.23-1.23.37l-1.36.44c-.47.16-.94.35-1.43.52s-1,.37-1.49.51-1,.31-1.52.42-1,.25-1.49.34-1,.16-1.41.24-.87.1-1.27.13l-.57,0h-.51a6.47,6.47,0,0,1-.84-.06,4,4,0,0,1-.71-.13Z"/><path class="cls-11" d="M330.28,211.74s5.47-5.21,10.09-6.28,6.09.37,6.63,2.44-.09,4-4.71,5S330.28,211.74,330.28,211.74Z"/><path class="cls-12" d="M330.5,211.66a4.53,4.53,0,0,0,.72.22,6.47,6.47,0,0,0,.84.15l.53.06.58,0h1.32c.47,0,1-.06,1.47-.13s1-.13,1.56-.22,1.06-.21,1.59-.31,1.05-.25,1.58-.37a14.6,14.6,0,0,0,1.51-.43,11.86,11.86,0,0,0,1.35-.53c.43-.18.82-.37,1.19-.55s.67-.37,1-.53l.72-.45c.4-.26.61-.42.61-.42l0-.1s-.27,0-.73.15l-.83.21-1.05.3c-.38.11-.8.23-1.23.38l-1.36.43c-.46.17-.93.36-1.43.53s-1,.36-1.49.51-1,.31-1.52.42-1,.25-1.48.34-1,.16-1.41.23-.88.11-1.28.13l-.57,0h-.51c-.32,0-.6,0-.83-.06a3.73,3.73,0,0,1-.71-.13Z"/><path class="cls-2" d="M319.28,62.06a4.25,4.25,0,0,1,5.89-1.58,148.66,148.66,0,0,1,52,55.9,157.17,157.17,0,0,1,18.55,69.74,4.46,4.46,0,0,1-4.34,4.61l-141.73,1.35a4.16,4.16,0,0,1-3.45-6.42Z"/><g class="cls-3"><path class="cls-4" d="M373.15,178.62a1.45,1.45,0,0,0,1.43.76,1.63,1.63,0,0,0,1.43-1.7,133.42,133.42,0,0,0-3.37-23.13,1.45,1.45,0,0,0-1.83-1.07,1.62,1.62,0,0,0-1.13,1.91A130.24,130.24,0,0,1,373,178,1.48,1.48,0,0,0,373.15,178.62Z"/><path class="cls-4" d="M367.64,147.74a1.47,1.47,0,0,0,1.79.67,1.61,1.61,0,0,0,1-2,127.11,127.11,0,0,0-23.5-43.76,1.49,1.49,0,0,0-2.14-.13,1.6,1.6,0,0,0-.21,2.19,124.36,124.36,0,0,1,22.95,42.73A2.33,2.33,0,0,0,367.64,147.74Z"/><path class="cls-4" d="M322.08,83.52a1.34,1.34,0,0,0,.43.49,120.09,120.09,0,0,1,16.72,14.68,1.5,1.5,0,0,0,2.15,0,1.59,1.59,0,0,0,.07-2.2,122.87,122.87,0,0,0-17.12-15,1.52,1.52,0,0,0-2.13.4A1.58,1.58,0,0,0,322.08,83.52Z"/></g><g class="cls-5"><path class="cls-6" d="M326.23,64.79a.72.72,0,0,0,.21.25c10.64,7.77,32.81,24,47.91,53.58,14,27.47,17.3,51.54,18,63.44a.73.73,0,0,0,.81.69.81.81,0,0,0,.71-.85c-.72-12-4-36.33-18.18-64-15.27-29.94-37.61-46.26-48.35-54.1a.75.75,0,0,0-1.06.2A.76.76,0,0,0,326.23,64.79Z"/></g><path class="cls-4" d="M371.24,185.3l18.6-.05-.77-.71A12.48,12.48,0,0,0,373,184Z"/><path class="cls-4" d="M314.71,80.05,324.4,63.4l.18,1.06a13.68,13.68,0,0,1-7.9,14.71Z"/><path class="cls-4" d="M319.55,86.5c30.31,21.52,47.76,55.57,50,91.71a7.33,7.33,0,0,1-7.21,7.73l-65.93.31H283.14l-8.91.05-13-.15c-4.09-1.06-6.19-6.08-3.72-10.24l52-87.11A7,7,0,0,1,319.55,86.5Z"/><path class="cls-7" d="M355.14,177.5a8.62,8.62,0,1,1-3-12.09A8.84,8.84,0,0,1,355.14,177.5Z"/><path class="cls-8" d="M354.17,177a7.51,7.51,0,1,1-2.63-10.53A7.69,7.69,0,0,1,354.17,177Z"/><path class="cls-9" d="M343.53,177.55l2.83,1.42a.79.79,0,0,0,1.1-.6l.51-3.1a.79.79,0,0,1,.89-.66l3.54.6a.8.8,0,0,0,.86-1.05l-1.82-5.11a.74.74,0,0,0-1.35-.08l-1.7,3a.75.75,0,0,1-1.31,0l-1.85-3.37a.74.74,0,0,0-1.28,0l-2.59,3.88a.75.75,0,0,0,.54,1.18l2.37.15a.76.76,0,0,1,.41,1.34l-1.27,1.13A.77.77,0,0,0,343.53,177.55Z"/><path class="cls-10" d="M345.4,177.22h0a.82.82,0,0,0,1-.48l.87-2.07a.86.86,0,0,1,.7-.52l3-.25a.86.86,0,0,0,.73-1.1l-.38-1.18a.77.77,0,0,0-1.22-.37l-2.26,1.7a.77.77,0,0,1-1.1-.14l-1.57-2.13a.8.8,0,0,0-1.34.12l-.67,1.18a.8.8,0,0,0,.44,1.18l1.53.44a.8.8,0,0,1,.47,1.13l-.68,1.36A.8.8,0,0,0,345.4,177.22Z"/><ellipse class="cls-10" cx="349.43" cy="176.11" rx="0.7" ry="0.67" transform="translate(23.7 392.93) rotate(-60.4)"/><ellipse class="cls-10" cx="347.81" cy="170.63" rx="0.57" ry="0.55" transform="translate(27.73 388.89) rotate(-60.42)"/><ellipse class="cls-10" cx="342.82" cy="175.79" rx="0.57" ry="0.55" transform="translate(20.52 386.87) rotate(-60.37)"/><ellipse class="cls-10" cx="346.98" cy="167.94" rx="0.84" ry="0.8" transform="translate(29.83 387.06) rotate(-60.47)"/><path class="cls-7" d="M343,155.72a8.62,8.62,0,1,1,3.1-12.07A8.85,8.85,0,0,1,343,155.72Z"/><path class="cls-8" d="M342.38,154.77a7.51,7.51,0,1,1,2.7-10.51A7.68,7.68,0,0,1,342.38,154.77Z"/><path class="cls-9" d="M332.74,150.23l1.82,2.6a.77.77,0,0,0,1.24,0l1.93-2.48a.78.78,0,0,1,1.1-.16l2.82,2.21a.79.79,0,0,0,1.25-.51l.84-5.36a.74.74,0,0,0-1.15-.71l-2.92,1.81a.75.75,0,0,1-1.17-.59l0-3.84a.74.74,0,0,0-1.11-.63l-4.12,2.18a.75.75,0,0,0-.09,1.3l2,1.25a.76.76,0,0,1-.29,1.37l-1.65.39A.77.77,0,0,0,332.74,150.23Z"/><path class="cls-10" d="M334.54,150.83h0a.81.81,0,0,0,1.12.07l1.76-1.4a.82.82,0,0,1,.86-.12l2.78,1.21a.85.85,0,0,0,1.17-.61l.23-1.22a.78.78,0,0,0-.9-.91l-2.8.43a.79.79,0,0,1-.9-.66l-.37-2.62a.8.8,0,0,0-1.23-.53l-1.15.72a.79.79,0,0,0-.17,1.24l1.13,1.12a.8.8,0,0,1-.13,1.22l-1.24.87A.8.8,0,0,0,334.54,150.83Z"/><ellipse class="cls-10" cx="338.57" cy="151.76" rx="0.7" ry="0.67" transform="translate(-28.93 202.77) rotate(-32.05)"/><ellipse class="cls-10" cx="339.8" cy="146.15" rx="0.57" ry="0.55" transform="translate(-25.85 202.05) rotate(-31.96)"/><ellipse class="cls-10" cx="332.93" cy="148.34" rx="0.57" ry="0.54" transform="translate(-28.09 198.5) rotate(-31.93)"/><ellipse class="cls-10" cx="340.36" cy="143.4" rx="0.84" ry="0.8" transform="translate(-24.24 202.32) rotate(-32.03)"/><path class="cls-7" d="M310,177.57a8.62,8.62,0,1,1-3-12.09A8.83,8.83,0,0,1,310,177.57Z"/><path class="cls-8" d="M309,177a7.5,7.5,0,1,1-2.63-10.52A7.68,7.68,0,0,1,309,177Z"/><path class="cls-9" d="M298.37,177.62l2.84,1.42a.77.77,0,0,0,1.09-.59l.51-3.1a.79.79,0,0,1,.9-.66l3.53.6a.8.8,0,0,0,.86-1l-1.82-5.11a.74.74,0,0,0-1.35-.08l-1.7,3a.75.75,0,0,1-1.31,0l-1.85-3.36a.74.74,0,0,0-1.27,0l-2.59,3.87a.74.74,0,0,0,.54,1.19l2.37.14a.76.76,0,0,1,.4,1.35l-1.27,1.12A.77.77,0,0,0,298.37,177.62Z"/><path class="cls-10" d="M300.24,177.29h0a.82.82,0,0,0,1-.48l.87-2.07a.84.84,0,0,1,.7-.51l3-.26a.85.85,0,0,0,.73-1.09l-.38-1.19a.78.78,0,0,0-1.22-.37L302.73,173a.77.77,0,0,1-1.1-.15l-1.57-2.13a.79.79,0,0,0-1.33.12l-.68,1.18a.8.8,0,0,0,.44,1.18l1.53.44a.81.81,0,0,1,.47,1.14l-.68,1.36A.8.8,0,0,0,300.24,177.29Z"/><ellipse class="cls-10" cx="304.27" cy="176.18" rx="0.7" ry="0.67" transform="translate(0.92 353.95) rotate(-60.44)"/><path class="cls-10" d="M303.09,171a.57.57,0,0,1-.76.23.58.58,0,1,1,.76-.23Z"/><ellipse class="cls-10" cx="297.64" cy="175.82" rx="0.57" ry="0.55" transform="translate(-2.28 347.72) rotate(-60.39)"/><ellipse class="cls-10" cx="301.84" cy="168.02" rx="0.84" ry="0.8" transform="translate(6.72 347.6) rotate(-60.42)"/><path class="cls-7" d="M331.85,127.58a8.62,8.62,0,1,1-3-12.09A8.84,8.84,0,0,1,331.85,127.58Z"/><path class="cls-8" d="M330.88,127a7.5,7.5,0,1,1-2.63-10.52A7.68,7.68,0,0,1,330.88,127Z"/><path class="cls-9" d="M320.24,127.62l2.84,1.43a.78.78,0,0,0,1.09-.6l.51-3.1a.79.79,0,0,1,.9-.66l3.53.6a.79.79,0,0,0,.86-1.05l-1.82-5.11a.74.74,0,0,0-1.35-.08l-1.7,3a.75.75,0,0,1-1.31,0l-1.85-3.36a.74.74,0,0,0-1.27,0l-2.59,3.88a.74.74,0,0,0,.54,1.18l2.37.14a.76.76,0,0,1,.4,1.35l-1.27,1.13A.76.76,0,0,0,320.24,127.62Z"/><path class="cls-10" d="M322.11,127.29h0a.83.83,0,0,0,1-.47l.88-2.07a.85.85,0,0,1,.69-.52l3-.25a.86.86,0,0,0,.73-1.1l-.37-1.18a.77.77,0,0,0-1.22-.37l-2.26,1.7a.78.78,0,0,1-1.11-.14l-1.57-2.13a.79.79,0,0,0-1.33.12l-.67,1.18a.8.8,0,0,0,.44,1.18l1.52.44a.79.79,0,0,1,.47,1.13l-.67,1.36A.79.79,0,0,0,322.11,127.29Z"/><ellipse class="cls-10" cx="326.1" cy="126.17" rx="0.7" ry="0.67" transform="translate(55.51 347.62) rotate(-60.45)"/><ellipse class="cls-10" cx="324.47" cy="120.69" rx="0.57" ry="0.55" transform="translate(59.17 343.09) rotate(-60.38)"/><ellipse class="cls-10" cx="319.54" cy="125.86" rx="0.57" ry="0.55" transform="translate(52.2 341.45) rotate(-60.38)"/><ellipse class="cls-10" cx="323.73" cy="118.02" rx="0.84" ry="0.8" transform="translate(61.3 341.31) rotate(-60.42)"/><path class="cls-7" d="M282.34,169.47a5.87,5.87,0,1,1-2.06-8.23A6,6,0,0,1,282.34,169.47Z"/><path class="cls-8" d="M281.68,169.09a5.11,5.11,0,1,1-1.79-7.16A5.24,5.24,0,0,1,281.68,169.09Z"/><path class="cls-9" d="M274.44,169.5l1.93,1a.52.52,0,0,0,.74-.41l.35-2.1a.53.53,0,0,1,.61-.45l2.4.4a.54.54,0,0,0,.59-.71l-1.24-3.48a.5.5,0,0,0-.92-.06l-1.16,2a.51.51,0,0,1-.89,0l-1.26-2.29a.5.5,0,0,0-.87,0L273,166.05a.51.51,0,0,0,.37.81l1.61.09a.52.52,0,0,1,.27.92l-.86.77A.52.52,0,0,0,274.44,169.5Z"/><path class="cls-10" d="M275.71,169.28h0a.56.56,0,0,0,.69-.33l.6-1.41a.59.59,0,0,1,.47-.35l2.07-.17a.58.58,0,0,0,.49-.75l-.25-.81a.53.53,0,0,0-.83-.25l-1.54,1.16a.53.53,0,0,1-.75-.09l-1.07-1.46a.55.55,0,0,0-.91.09l-.46.8a.54.54,0,0,0,.3.8l1,.3a.55.55,0,0,1,.32.78l-.46.92A.55.55,0,0,0,275.71,169.28Z"/><ellipse class="cls-10" cx="278.44" cy="168.55" rx="0.48" ry="0.45" transform="translate(-5.36 327.9) rotate(-60.5)"/><path class="cls-10" d="M277.65,165a.37.37,0,1,1-.13-.52A.38.38,0,0,1,277.65,165Z"/><ellipse class="cls-10" cx="273.91" cy="168.28" rx="0.39" ry="0.37" transform="translate(-7.76 323.24) rotate(-60.38)"/><ellipse class="cls-10" cx="276.82" cy="162.96" rx="0.57" ry="0.55" transform="translate(-1.54 323.27) rotate(-60.42)"/><path class="cls-11" d="M280.34,143.06s13.49-3.51,21.49-1,8.78,6.25,7.49,10.14-4.14,6.47-12.15,3.94S280.34,143.06,280.34,143.06Z"/><path class="cls-12" d="M280.75,143.14a6.35,6.35,0,0,0,.85,1,12,12,0,0,0,1.12,1l.73.59.85.59c.6.4,1.27.81,2,1.22s1.5.8,2.33,1.16,1.68.73,2.56,1.07,1.8.64,2.71,1,1.84.55,2.74.85a23.12,23.12,0,0,0,2.69.69,22.75,22.75,0,0,0,2.58.39c.83.08,1.61.14,2.33.17a19.21,19.21,0,0,0,2,0c.59,0,1.11,0,1.54-.06.85-.06,1.34-.13,1.34-.13l0-.21s-.46-.18-1.27-.43c-.4-.13-.89-.27-1.45-.42l-1.88-.47c-.69-.19-1.43-.36-2.23-.53l-2.48-.54c-.86-.16-1.77-.27-2.68-.45s-1.85-.31-2.75-.55-1.83-.42-2.71-.7-1.76-.52-2.57-.83-1.61-.61-2.36-.91-1.42-.64-2-1l-.89-.48-.77-.48a13.43,13.43,0,0,1-1.19-.86,6.26,6.26,0,0,1-.94-.87Z"/><path class="cls-11" d="M320.91,175.27s-1.72-7.36-.29-11.88,3.41-5.06,5.45-4.48,3.38,2.09,2,6.61S320.91,175.27,320.91,175.27Z"/><path class="cls-12" d="M321,175a4.06,4.06,0,0,0,.56-.51,8.57,8.57,0,0,0,.56-.65l.31-.43c.11-.15.21-.32.32-.49.22-.34.45-.72.67-1.13s.44-.86.64-1.33.41-1,.6-1.46.36-1,.54-1.53.31-1,.48-1.54a14.76,14.76,0,0,0,.39-1.52,11.38,11.38,0,0,0,.24-1.44c.05-.46.09-.89.11-1.3s0-.77,0-1.1,0-.61,0-.85c0-.47-.06-.74-.06-.74h-.11s-.1.26-.24.71c-.07.23-.15.51-.23.82s-.18.67-.28,1.06-.2.81-.3,1.25-.21.91-.31,1.4-.17,1-.27,1.5-.19,1-.32,1.54-.24,1-.4,1.52-.3,1-.47,1.45-.35.91-.51,1.34-.36.81-.53,1.16l-.27.51c-.1.15-.18.3-.26.44s-.33.51-.47.69a4.26,4.26,0,0,1-.48.55Z"/><path class="cls-11" d="M303.31,124.93s-1.72-7.36-.29-11.88,3.41-5.06,5.46-4.48,3.37,2.09,1.95,6.61S303.31,124.93,303.31,124.93Z"/><path class="cls-12" d="M303.36,124.7a4,4,0,0,0,.55-.5,7,7,0,0,0,.56-.66l.31-.42.33-.49c.22-.34.44-.73.66-1.14s.44-.86.64-1.33.41-1,.6-1.45.36-1,.54-1.53.31-1,.48-1.55a12.58,12.58,0,0,0,.39-1.52,11,11,0,0,0,.24-1.43c0-.46.09-.9.12-1.3s0-.77,0-1.1,0-.62,0-.85c0-.47-.06-.74-.06-.74h-.11s-.1.26-.24.71c-.07.23-.15.5-.23.82s-.17.67-.28,1.06-.2.8-.3,1.25-.21.91-.31,1.39-.17,1-.27,1.5-.19,1-.32,1.54-.24,1-.4,1.53-.29,1-.47,1.45-.34.91-.51,1.33-.35.82-.53,1.17c-.09.18-.18.34-.27.51l-.26.43c-.17.28-.33.51-.47.7a4.13,4.13,0,0,1-.47.54Z"/><path class="cls-2" d="M315.58,24.44a4.06,4.06,0,0,0-1.69-5.74,168.81,168.81,0,0,0-149.15-2.61,4.08,4.08,0,0,0-1.83,5.82l73.33,121.31a4.46,4.46,0,0,0,7.54,0Z"/><g class="cls-3"><path class="cls-4" d="M183.29,31.87a1.56,1.56,0,0,1-1.42-.87,1.46,1.46,0,0,1,.76-2,138.67,138.67,0,0,1,22.4-7.7A1.57,1.57,0,0,1,207,22.38a1.49,1.49,0,0,1-1.12,1.83A135.8,135.8,0,0,0,184,31.73,1.54,1.54,0,0,1,183.29,31.87Z"/><path class="cls-4" d="M213.73,22.44a1.56,1.56,0,0,1-1.54-1.21,1.51,1.51,0,0,1,1.24-1.76,140.64,140.64,0,0,1,51.38,0,1.5,1.5,0,0,1,1.24,1.76,1.57,1.57,0,0,1-1.84,1.19,137.19,137.19,0,0,0-50.18,0Z"/><path class="cls-4" d="M295,31.87a1.54,1.54,0,0,1-.66-.14,135.94,135.94,0,0,0-21.89-7.52,1.49,1.49,0,0,1-1.11-1.84,1.57,1.57,0,0,1,1.91-1.07A138.84,138.84,0,0,1,295.63,29a1.48,1.48,0,0,1,.77,2A1.6,1.6,0,0,1,295,31.87Z"/></g><g class="cls-5"><path class="cls-6" d="M309.49,19.78a.75.75,0,0,1-.33-.07c-12.54-5.51-38.63-17-73-16.29-31.87.63-55.07,8.84-66.06,13.67a.79.79,0,0,1-1-.37.73.73,0,0,1,.38-1C180.56,10.84,204,2.55,236.14,1.92c34.73-.69,61,10.87,73.68,16.43a.73.73,0,0,1,.38,1A.78.78,0,0,1,309.49,19.78Z"/></g><path class="cls-4" d="M178.35,36.56,168.6,20.69l1,.33a12.6,12.6,0,0,1,9,13.46Z"/><path class="cls-4" d="M301.94,36.56l9.75-15.87-1,.33a12.6,12.6,0,0,0-9,13.46Z"/><path class="cls-4" d="M293.64,35.39a133,133,0,0,0-108.08-.62,6.68,6.68,0,0,0-3.1,9.68l34.4,56.28,7,11.29,4.64,7.6,7,11a7.24,7.24,0,0,0,11.08-1.52L296.88,45A6.75,6.75,0,0,0,293.64,35.39Z"/><path class="cls-7" d="M193.77,46.7a8.4,8.4,0,0,0,3.09,11.82,9.25,9.25,0,0,0,12.37-3,8.4,8.4,0,0,0-3.09-11.82A9.26,9.26,0,0,0,193.77,46.7Z"/><path class="cls-8" d="M194.76,47.28a7.3,7.3,0,0,0,2.7,10.28A8.05,8.05,0,0,0,208.23,55a7.3,7.3,0,0,0-2.69-10.28A8.07,8.07,0,0,0,194.76,47.28Z"/><path class="cls-9" d="M199.83,56.61l-2.76-1.76a.73.73,0,0,1,0-1.21l2.49-1.85a.72.72,0,0,0,.12-1.06L197.25,48a.73.73,0,0,1,.48-1.21l5.51-.79a.75.75,0,0,1,.79,1.12l-1.77,2.81a.74.74,0,0,0,.66,1.13l4,0a.75.75,0,0,1,.69,1.08l-2.09,4a.8.8,0,0,1-1.34.08l-1.38-1.95a.79.79,0,0,0-1.41.27l-.33,1.6A.79.79,0,0,1,199.83,56.61Z"/><path class="cls-10" d="M199.14,54.87h0a.78.78,0,0,1-.11-1.09l1.38-1.69a.75.75,0,0,0,.1-.83l-1.37-2.7a.79.79,0,0,1,.6-1.12l1.25-.22a.81.81,0,0,1,1,.87l-.33,2.71a.8.8,0,0,0,.71.87l2.72.37a.79.79,0,0,1,.6,1.19l-.7,1.11a.85.85,0,0,1-1.28.16l-1.2-1.1a.86.86,0,0,0-1.26.12l-.85,1.2A.86.86,0,0,1,199.14,54.87Z"/><path class="cls-10" d="M197.42,50.61a.65.65,0,0,0,.24.92.72.72,0,0,0,1-.23.66.66,0,0,0-.24-.92A.73.73,0,0,0,197.42,50.61Z"/><path class="cls-10" d="M203.29,49.54a.54.54,0,0,0,.2.75.58.58,0,0,0,.78-.18.53.53,0,0,0-.2-.75A.58.58,0,0,0,203.29,49.54Z"/><path class="cls-10" d="M201.3,56.12a.53.53,0,0,0,.2.75.59.59,0,0,0,.78-.19.54.54,0,0,0-.2-.75A.59.59,0,0,0,201.3,56.12Z"/><path class="cls-10" d="M205.87,48.85a.78.78,0,0,0,.29,1.1.86.86,0,0,0,1.15-.27.78.78,0,0,0-.29-1.1A.86.86,0,0,0,205.87,48.85Z"/><path class="cls-7" d="M217.45,85.19A8.4,8.4,0,0,0,220.54,97a9.26,9.26,0,0,0,12.37-3,8.4,8.4,0,0,0-3.09-11.82A9.25,9.25,0,0,0,217.45,85.19Z"/><path class="cls-8" d="M218.45,85.77a7.3,7.3,0,0,0,2.69,10.28,8.06,8.06,0,0,0,10.77-2.57,7.31,7.31,0,0,0-2.69-10.29A8.05,8.05,0,0,0,218.45,85.77Z"/><path class="cls-9" d="M223.51,95.1l-2.76-1.77a.72.72,0,0,1,0-1.2l2.49-1.85a.72.72,0,0,0,.12-1.06l-2.39-2.74a.73.73,0,0,1,.48-1.21l5.51-.79a.75.75,0,0,1,.79,1.12l-1.77,2.81a.74.74,0,0,0,.66,1.13l4,0a.75.75,0,0,1,.69,1.08l-2.09,4a.8.8,0,0,1-1.35.08l-1.37-1.95A.79.79,0,0,0,225,93l-.34,1.6A.78.78,0,0,1,223.51,95.1Z"/><path class="cls-10" d="M222.82,93.36h0a.78.78,0,0,1-.11-1.09l1.39-1.69a.76.76,0,0,0,.09-.83l-1.36-2.7a.78.78,0,0,1,.59-1.12l1.25-.22a.81.81,0,0,1,1,.87l-.33,2.7a.8.8,0,0,0,.71.88l2.73.36a.79.79,0,0,1,.59,1.19l-.69,1.11a.86.86,0,0,1-1.29.17l-1.2-1.1a.86.86,0,0,0-1.26.12l-.85,1.19A.85.85,0,0,1,222.82,93.36Z"/><path class="cls-10" d="M221.1,89.1a.65.65,0,0,0,.24.92.72.72,0,0,0,1-.23.65.65,0,0,0-.24-.92A.73.73,0,0,0,221.1,89.1Z"/><path class="cls-10" d="M227,88a.54.54,0,0,0,.2.75.58.58,0,0,0,.78-.18.54.54,0,0,0-.2-.75A.58.58,0,0,0,227,88Z"/><path class="cls-10" d="M225,94.61a.54.54,0,0,0,.2.75.59.59,0,0,0,.78-.19.54.54,0,0,0-.2-.75A.59.59,0,0,0,225,94.61Z"/><path class="cls-10" d="M229.55,87.34a.78.78,0,0,0,.29,1.1.86.86,0,0,0,1.15-.27.78.78,0,0,0-.29-1.1A.86.86,0,0,0,229.55,87.34Z"/><path class="cls-7" d="M255.29,44a8.4,8.4,0,0,0,3.09,11.82,9.27,9.27,0,0,0,12.37-3,8.39,8.39,0,0,0-3.09-11.81A9.25,9.25,0,0,0,255.29,44Z"/><path class="cls-8" d="M256.29,44.6A7.31,7.31,0,0,0,259,54.89a8.06,8.06,0,0,0,10.77-2.57A7.31,7.31,0,0,0,267.06,42,8.06,8.06,0,0,0,256.29,44.6Z"/><path class="cls-9" d="M261.35,53.94l-2.76-1.77a.72.72,0,0,1,0-1.2L261,49.12a.73.73,0,0,0,.12-1.07l-2.39-2.73a.73.73,0,0,1,.48-1.21l5.51-.79a.75.75,0,0,1,.79,1.12l-1.77,2.81a.75.75,0,0,0,.66,1.13l4,0a.74.74,0,0,1,.69,1.08l-2.09,4a.8.8,0,0,1-1.35.08l-1.37-2a.79.79,0,0,0-1.41.27l-.34,1.6A.79.79,0,0,1,261.35,53.94Z"/><path class="cls-10" d="M260.66,52.2h0a.78.78,0,0,1-.11-1.09l1.39-1.69a.76.76,0,0,0,.09-.83l-1.36-2.7a.78.78,0,0,1,.59-1.12l1.25-.22a.82.82,0,0,1,1,.87l-.33,2.7a.79.79,0,0,0,.7.88l2.73.36a.79.79,0,0,1,.6,1.19l-.7,1.11a.84.84,0,0,1-1.28.16L264,50.73a.86.86,0,0,0-1.26.12L261.89,52A.87.87,0,0,1,260.66,52.2Z"/><path class="cls-10" d="M258.94,47.94a.65.65,0,0,0,.24.92.73.73,0,0,0,1-.23.65.65,0,0,0-.24-.92A.72.72,0,0,0,258.94,47.94Z"/><path class="cls-10" d="M264.81,46.87a.54.54,0,0,0,.2.75.58.58,0,0,0,.78-.19.53.53,0,0,0-.19-.75A.6.6,0,0,0,264.81,46.87Z"/><path class="cls-10" d="M262.82,53.45a.54.54,0,0,0,.2.75.59.59,0,0,0,.78-.19.54.54,0,0,0-.19-.75A.59.59,0,0,0,262.82,53.45Z"/><path class="cls-10" d="M267.39,46.18a.78.78,0,0,0,.29,1.1.86.86,0,0,0,1.15-.28.78.78,0,0,0-.29-1.1A.87.87,0,0,0,267.39,46.18Z"/><path class="cls-7" d="M239.21,105a5.73,5.73,0,0,0,2.11,8,6.29,6.29,0,0,0,8.42-2,5.72,5.72,0,0,0-2.1-8A6.33,6.33,0,0,0,239.21,105Z"/><path class="cls-8" d="M239.89,105.41a5,5,0,0,0,1.83,7,5.49,5.49,0,0,0,7.34-1.75,5,5,0,0,0-1.83-7A5.5,5.5,0,0,0,239.89,105.41Z"/><path class="cls-9" d="M243.34,111.77l-1.88-1.2a.5.5,0,0,1,0-.82l1.7-1.26a.5.5,0,0,0,.08-.73l-1.63-1.86a.51.51,0,0,1,.33-.83l3.76-.53a.51.51,0,0,1,.53.76L245,107.21a.51.51,0,0,0,.46.77l2.7,0a.52.52,0,0,1,.47.74l-1.43,2.71a.54.54,0,0,1-.91,0l-.93-1.33a.55.55,0,0,0-1,.18l-.23,1.1A.53.53,0,0,1,243.34,111.77Z"/><path class="cls-10" d="M242.87,110.58h0a.51.51,0,0,1-.07-.74l.94-1.15a.5.5,0,0,0,.06-.56l-.93-1.84a.53.53,0,0,1,.41-.76l.85-.15a.55.55,0,0,1,.66.59l-.23,1.84a.56.56,0,0,0,.48.6l1.86.24a.54.54,0,0,1,.41.81l-.48.76a.57.57,0,0,1-.87.11l-.82-.75a.58.58,0,0,0-.86.09l-.58.81A.58.58,0,0,1,242.87,110.58Z"/><path class="cls-10" d="M241.7,107.69a.44.44,0,0,0,.16.62.48.48,0,0,0,.65-.16.43.43,0,0,0-.16-.62A.48.48,0,0,0,241.7,107.69Z"/><path class="cls-10" d="M245.7,107a.37.37,0,0,0,.13.51.4.4,0,0,0,.53-.13.36.36,0,0,0-.13-.51A.4.4,0,0,0,245.7,107Z"/><path class="cls-10" d="M244.34,111.44a.36.36,0,0,0,.14.51.41.41,0,0,0,.53-.13.36.36,0,0,0-.14-.51A.39.39,0,0,0,244.34,111.44Z"/><path class="cls-10" d="M247.45,106.49a.54.54,0,0,0,.2.75.59.59,0,0,0,.78-.19.52.52,0,0,0-.19-.75A.59.59,0,0,0,247.45,106.49Z"/><path class="cls-11" d="M263.81,94.65s-3.95-13.09-10.42-18.75-10.19-4.62-13-1.75-3.58,6.49,2.88,12.15S263.81,94.65,263.81,94.65Z"/><path class="cls-12" d="M263.53,94.34a7.32,7.32,0,0,1-1.36-.26,12.73,12.73,0,0,1-1.51-.48l-.9-.36-1-.45c-.67-.33-1.39-.7-2.13-1.13s-1.5-.91-2.26-1.45-1.53-1.1-2.3-1.7-1.52-1.23-2.28-1.86-1.46-1.31-2.2-2a25.44,25.44,0,0,1-2-2,19.1,19.1,0,0,1-1.7-2c-.51-.67-1-1.31-1.39-1.91s-.75-1.18-1.06-1.68-.55-1-.75-1.34c-.4-.75-.59-1.2-.59-1.2l.17-.12s.4.3,1.05.87c.32.29.7.64,1.13,1l1.42,1.39c.52.5,1.07,1,1.64,1.65s1.17,1.21,1.78,1.87,1.18,1.38,1.82,2.08,1.24,1.42,1.93,2.09,1.34,1.37,2.05,2,1.39,1.26,2.09,1.82,1.4,1.08,2.06,1.58,1.32.93,1.94,1.3l.89.54.84.43a12.65,12.65,0,0,0,1.39.62,7,7,0,0,0,1.27.4Z"/><path class="cls-11" d="M213.76,74.83s7.46-1.9,10.74-5.18,2.73-5.22,1.13-6.7S222,61,218.71,64.31,213.76,74.83,213.76,74.83Z"/><path class="cls-12" d="M213.94,74.69a3.3,3.3,0,0,1,.16-.7,5.57,5.57,0,0,1,.29-.78c.06-.14.13-.3.21-.46l.26-.5c.2-.35.42-.71.67-1.09a14.13,14.13,0,0,1,.85-1.15c.3-.4.64-.78,1-1.17s.72-.77,1.08-1.16.76-.74,1.13-1.12.76-.71,1.14-1a13,13,0,0,1,1.17-.86c.38-.25.75-.49,1.09-.69a10.85,10.85,0,0,1,1-.53c.29-.15.55-.28.76-.37l.69-.3.07.09s-.18.21-.51.53c-.16.17-.37.36-.6.58l-.81.72-.95.83-1.08.9c-.38.3-.8.6-1.2.91s-.82.64-1.2,1-.79.68-1.15,1-.73.7-1.05,1.06-.63.71-.92,1-.54.67-.76,1l-.31.45-.26.43c-.15.27-.28.51-.37.71a3.59,3.59,0,0,0-.23.66Z"/><path class="cls-11" d="M233.27,64s-11.19-9.63-13.83-18.09.12-11.37,4.26-12.58,8.1-.25,10.74,8.22S233.27,64,233.27,64Z"/><path class="cls-12" d="M233.09,63.61a7.07,7.07,0,0,0,.38-1.36,11.49,11.49,0,0,0,.21-1.58q0-.47.06-1V58.59c0-.76-.06-1.59-.14-2.45s-.21-1.79-.4-2.72-.38-1.89-.62-2.87-.53-1.94-.8-2.92-.63-1.93-.92-2.89a25,25,0,0,0-1-2.76,23.66,23.66,0,0,0-1.22-2.47c-.43-.77-.85-1.48-1.26-2.14s-.82-1.22-1.18-1.73-.7-1-1-1.3c-.56-.71-.92-1.09-.92-1.09l-.2.1s.12.51.39,1.36c.13.42.31.93.52,1.51s.46,1.21.72,1.92.56,1.46.89,2.25.66,1.62,1,2.48.82,1.7,1.22,2.6.84,1.79,1.19,2.72.74,1.84,1,2.77.61,1.84.84,2.73.44,1.77.63,2.6.3,1.62.4,2.35c0,.37.07.72.11,1.06s0,.65.05.95a15.15,15.15,0,0,1,0,1.56,6.45,6.45,0,0,1-.19,1.33Z"/><path class="cls-2" d="M87.78,190.18a4.25,4.25,0,0,1-4.35-4.27,148.72,148.72,0,0,1,21.84-73.16A157,157,0,0,1,156,61.42a4.48,4.48,0,0,1,6.18,1.4l73,121.49a4.16,4.16,0,0,1-3.79,6.23Z"/><g class="cls-3"><path class="cls-4" d="M161,84.66a1.44,1.44,0,0,0-.07-1.61,1.62,1.62,0,0,0-2.19-.37,133.07,133.07,0,0,0-18.23,14.63,1.45,1.45,0,0,0,0,2.12,1.62,1.62,0,0,0,2.22,0,130.39,130.39,0,0,1,17.8-14.3A1.47,1.47,0,0,0,161,84.66Z"/><path class="cls-4" d="M137.12,105.06a1.46,1.46,0,0,0-.32-1.88,1.64,1.64,0,0,0-2.22.14,127.31,127.31,0,0,0-25.81,42.44,1.49,1.49,0,0,0,1,1.91,1.59,1.59,0,0,0,2-.93,124.35,124.35,0,0,1,25.2-41.44A1.08,1.08,0,0,0,137.12,105.06Z"/><path class="cls-4" d="M104.86,176.89a1.42,1.42,0,0,0,.2-.61,120.68,120.68,0,0,1,4.18-21.86,1.49,1.49,0,0,0-1.1-1.84,1.58,1.58,0,0,0-1.93,1A124,124,0,0,0,101.93,176a1.52,1.52,0,0,0,1.43,1.63A1.59,1.59,0,0,0,104.86,176.89Z"/></g><g class="cls-5"><path class="cls-6" d="M86.62,182.81a.81.81,0,0,0,.1-.31c1.31-13.12,4-40.43,21.9-68.46,16.58-26,35.66-41,45.56-47.68a.73.73,0,0,0,.19-1,.8.8,0,0,0-1.09-.18c-10,6.72-29.27,21.9-46,48.13-18.06,28.34-20.81,55.87-22.13,69.1a.77.77,0,0,0,.71.82A.81.81,0,0,0,86.62,182.81Z"/></g><path class="cls-4" d="M167.68,82.93l-9.48-16-.22,1a12.5,12.5,0,0,0,7.69,14.16Z"/><path class="cls-4" d="M105.6,185l-19.26.08.82-.7a13.69,13.69,0,0,1,16.69-.64Z"/><path class="cls-4" d="M108.7,177.56c3.2-37,23.7-69.34,53.73-89.57a7.34,7.34,0,0,1,10.32,2.3L206.43,147l6.72,11.43,4.56,7.65,6.45,11.27c1.16,4.06-2.11,8.42-6.94,8.39l-101.44-.64A7,7,0,0,1,108.7,177.56Z"/><path class="cls-7" d="M169.11,100.76a8.62,8.62,0,1,1-8.88,8.73A8.84,8.84,0,0,1,169.11,100.76Z"/><path class="cls-8" d="M169.13,101.87a7.51,7.51,0,1,1-7.74,7.61A7.69,7.69,0,0,1,169.13,101.87Z"/><path class="cls-9" d="M175,110.74l-.21-3.16a.79.79,0,0,0-1.07-.65l-2.93,1.14a.79.79,0,0,1-1-.44l-1.27-3.35a.81.81,0,0,0-1.35-.21l-3.48,4.16a.74.74,0,0,0,.62,1.21l3.44,0a.74.74,0,0,1,.68,1.11l-2,3.3a.74.74,0,0,0,.63,1.11l4.65.27a.75.75,0,0,0,.75-1.07L171.44,112a.76.76,0,0,1,.95-1l1.62.52A.77.77,0,0,0,175,110.74Z"/><path class="cls-10" d="M173.81,109.3h0a.82.82,0,0,0-.93-.64l-2.23.3a.86.86,0,0,1-.8-.35l-1.75-2.48a.86.86,0,0,0-1.32-.07L166,107a.77.77,0,0,0,.29,1.24l2.62,1.09a.77.77,0,0,1,.43,1l-1,2.43a.8.8,0,0,0,.78,1.09h1.36a.8.8,0,0,0,.79-1l-.39-1.54a.8.8,0,0,1,.74-1l1.51-.11A.8.8,0,0,0,173.81,109.3Z"/><ellipse class="cls-10" cx="170.82" cy="106.4" rx="0.7" ry="0.67" transform="translate(-1.58 2.57) rotate(-0.86)"/><ellipse class="cls-10" cx="166.89" cy="110.59" rx="0.57" ry="0.55" transform="translate(-1.64 2.52) rotate(-0.86)"/><ellipse class="cls-10" cx="173.86" cy="112.24" rx="0.57" ry="0.55" transform="translate(-1.65 2.6) rotate(-0.85)"/><ellipse class="cls-10" cx="164.99" cy="112.63" rx="0.84" ry="0.8" transform="translate(-1.68 2.5) rotate(-0.87)"/><path class="cls-7" d="M149.81,150.71a8.62,8.62,0,1,1-8.89,8.74A8.85,8.85,0,0,1,149.81,150.71Z"/><path class="cls-8" d="M149.83,151.83a7.5,7.5,0,1,1-7.74,7.6A7.69,7.69,0,0,1,149.83,151.83Z"/><path class="cls-9" d="M155.73,160.7l-.21-3.17a.77.77,0,0,0-1.07-.64L151.53,158a.8.8,0,0,1-1-.43l-1.27-3.35a.79.79,0,0,0-1.34-.21l-3.49,4.15a.75.75,0,0,0,.63,1.21l3.43,0a.75.75,0,0,1,.69,1.12l-2,3.29a.75.75,0,0,0,.63,1.11l4.66.27a.75.75,0,0,0,.75-1.06L152.14,162a.76.76,0,0,1,1-1l1.62.53A.76.76,0,0,0,155.73,160.7Z"/><path class="cls-10" d="M154.51,159.25h0a.85.85,0,0,0-.93-.64l-2.23.3a.85.85,0,0,1-.8-.34l-1.75-2.48a.85.85,0,0,0-1.32-.07l-.83.92a.78.78,0,0,0,.3,1.24l2.62,1.08a.78.78,0,0,1,.43,1l-1,2.43a.8.8,0,0,0,.78,1.09l1.36,0a.8.8,0,0,0,.79-1l-.39-1.54a.8.8,0,0,1,.74-1l1.51-.1A.81.81,0,0,0,154.51,159.25Z"/><ellipse class="cls-10" cx="151.52" cy="156.35" rx="0.7" ry="0.67" transform="translate(-2.33 2.29) rotate(-0.86)"/><ellipse class="cls-10" cx="147.61" cy="160.53" rx="0.57" ry="0.55" transform="translate(-2.31 2.16) rotate(-0.83)"/><ellipse class="cls-10" cx="154.54" cy="162.2" rx="0.57" ry="0.55" transform="translate(-2.42 2.34) rotate(-0.86)"/><ellipse class="cls-10" cx="145.7" cy="162.59" rx="0.84" ry="0.8" transform="translate(-2.34 2.13) rotate(-0.83)"/><path class="cls-7" d="M192.07,139.65a8.62,8.62,0,1,1-8.89,8.73A8.83,8.83,0,0,1,192.07,139.65Z"/><path class="cls-8" d="M192.08,140.76a7.51,7.51,0,1,1-7.73,7.61A7.7,7.7,0,0,1,192.08,140.76Z"/><path class="cls-9" d="M198,149.63l-.21-3.16a.78.78,0,0,0-1.07-.65L193.78,147a.79.79,0,0,1-1-.44l-1.27-3.35a.8.8,0,0,0-1.34-.21l-3.49,4.16a.74.74,0,0,0,.62,1.21l3.44-.05a.75.75,0,0,1,.69,1.11l-2,3.3a.74.74,0,0,0,.63,1.11l4.65.27a.75.75,0,0,0,.75-1.07l-1.08-2.12a.76.76,0,0,1,1-1l1.62.53A.77.77,0,0,0,198,149.63Z"/><path class="cls-10" d="M196.76,148.19h0a.82.82,0,0,0-.93-.64l-2.22.3a.84.84,0,0,1-.8-.35L191.05,145a.85.85,0,0,0-1.31-.07l-.83.92a.78.78,0,0,0,.3,1.24l2.61,1.09a.77.77,0,0,1,.44,1l-1,2.43a.8.8,0,0,0,.78,1.09h1.35a.81.81,0,0,0,.8-1l-.4-1.54a.8.8,0,0,1,.75-1l1.51-.11A.79.79,0,0,0,196.76,148.19Z"/><ellipse class="cls-10" cx="193.78" cy="145.29" rx="0.7" ry="0.67" transform="translate(-2.16 2.92) rotate(-0.86)"/><ellipse class="cls-10" cx="189.87" cy="149.48" rx="0.57" ry="0.55" transform="translate(-2.28 2.94) rotate(-0.88)"/><ellipse class="cls-10" cx="196.84" cy="151.13" rx="0.57" ry="0.55" transform="matrix(1, -0.02, 0.02, 1, -2.48, 3.29)"/><ellipse class="cls-10" cx="187.95" cy="151.52" rx="0.84" ry="0.8" transform="translate(-2.18 2.74) rotate(-0.83)"/><path class="cls-7" d="M126.49,159.33a8.62,8.62,0,1,1-8.89,8.73A8.83,8.83,0,0,1,126.49,159.33Z"/><path class="cls-8" d="M126.5,160.44a7.5,7.5,0,1,1-7.73,7.6A7.7,7.7,0,0,1,126.5,160.44Z"/><path class="cls-9" d="M132.41,169.31l-.21-3.17a.78.78,0,0,0-1.07-.64l-2.92,1.13a.8.8,0,0,1-1-.43l-1.27-3.35a.79.79,0,0,0-1.34-.21l-3.49,4.15a.74.74,0,0,0,.62,1.21l3.44,0a.75.75,0,0,1,.69,1.11l-2,3.29a.74.74,0,0,0,.63,1.11l4.66.27a.75.75,0,0,0,.74-1.07l-1.08-2.11a.76.76,0,0,1,.95-1l1.62.53A.77.77,0,0,0,132.41,169.31Z"/><path class="cls-10" d="M131.18,167.86h0a.82.82,0,0,0-.93-.63l-2.22.29a.83.83,0,0,1-.8-.34l-1.76-2.48a.85.85,0,0,0-1.31-.07l-.83.92a.78.78,0,0,0,.3,1.24l2.61,1.08a.78.78,0,0,1,.44,1l-1,2.43a.8.8,0,0,0,.78,1.09l1.36,0a.8.8,0,0,0,.79-1l-.39-1.54a.79.79,0,0,1,.74-1l1.51-.11A.8.8,0,0,0,131.18,167.86Z"/><ellipse class="cls-10" cx="128.2" cy="164.98" rx="0.7" ry="0.67" transform="translate(-2.41 1.9) rotate(-0.84)"/><ellipse class="cls-10" cx="124.28" cy="169.14" rx="0.57" ry="0.55" transform="translate(-2.59 1.93) rotate(-0.88)"/><ellipse class="cls-10" cx="131.22" cy="170.8" rx="0.57" ry="0.55" transform="translate(-2.83 2.22) rotate(-0.96)"/><ellipse class="cls-10" cx="122.38" cy="171.19" rx="0.84" ry="0.8" transform="translate(-2.47 1.79) rotate(-0.83)"/><path class="cls-7" d="M199.09,167.58a5.87,5.87,0,1,1-6.05,5.95A6,6,0,0,1,199.09,167.58Z"/><path class="cls-8" d="M199.1,168.34a5.11,5.11,0,1,1-5.27,5.18A5.23,5.23,0,0,1,199.1,168.34Z"/><path class="cls-9" d="M203.12,174.38l-.14-2.15a.53.53,0,0,0-.73-.44l-2,.77a.54.54,0,0,1-.7-.3l-.87-2.28a.54.54,0,0,0-.91-.14l-2.37,2.83a.5.5,0,0,0,.42.82l2.34,0a.51.51,0,0,1,.47.76l-1.34,2.24a.51.51,0,0,0,.43.76l3.17.18a.51.51,0,0,0,.51-.73l-.74-1.43a.52.52,0,0,1,.65-.71l1.1.36A.52.52,0,0,0,203.12,174.38Z"/><path class="cls-10" d="M202.29,173.4h0a.58.58,0,0,0-.64-.44l-1.51.21a.6.6,0,0,1-.55-.24l-1.19-1.69a.59.59,0,0,0-.9-.05l-.56.63a.53.53,0,0,0,.2.85l1.78.74a.52.52,0,0,1,.3.69l-.71,1.66a.54.54,0,0,0,.53.74H200a.55.55,0,0,0,.54-.67l-.27-1a.54.54,0,0,1,.51-.66l1-.08A.54.54,0,0,0,202.29,173.4Z"/><ellipse class="cls-10" cx="200.27" cy="171.41" rx="0.48" ry="0.46" transform="translate(-2.78 3.31) rotate(-0.94)"/><ellipse class="cls-10" cx="197.58" cy="174.27" rx="0.39" ry="0.37" transform="translate(-2.83 3.26) rotate(-0.94)"/><ellipse class="cls-10" cx="202.32" cy="175.42" rx="0.39" ry="0.37" transform="translate(-3.06 3.59) rotate(-1.01)"/><ellipse class="cls-10" cx="196.29" cy="175.68" rx="0.57" ry="0.55" transform="translate(-2.53 2.86) rotate(-0.83)"/><path class="cls-11" d="M177.34,182.69s-9.87-9.84-11.74-18,.93-10.74,4.94-11.6,7.67.3,9.55,8.48S177.34,182.69,177.34,182.69Z"/><path class="cls-12" d="M177.2,182.3a7.15,7.15,0,0,0,.46-1.26,13.19,13.19,0,0,0,.32-1.48q.06-.44.12-.93c0-.33.06-.67.09-1,0-.72.06-1.5,0-2.33s-.07-1.7-.18-2.59-.22-1.82-.37-2.75-.36-1.87-.55-2.82-.45-1.87-.65-2.8a26.75,26.75,0,0,0-.77-2.67,19.7,19.7,0,0,0-1-2.42c-.35-.75-.69-1.46-1-2.1s-.69-1.21-1-1.72-.59-.94-.84-1.29c-.47-.71-.78-1.1-.78-1.1l-.2.09s.07.48.27,1.3c.09.41.22.91.37,1.47s.35,1.18.55,1.86.42,1.42.67,2.19.51,1.58.8,2.41.66,1.67,1,2.54.66,1.75.92,2.65.56,1.79.76,2.69.45,1.77.6,2.64.28,1.7.4,2.49.17,1.55.21,2.25c0,.35,0,.69,0,1s0,.62,0,.9c0,.57-.07,1.07-.14,1.47a6.76,6.76,0,0,1-.28,1.25Z"/><path class="cls-11" d="M184.54,131.4s-5.47,5.21-10.09,6.27-6.1-.37-6.63-2.43.09-4,4.71-5S184.54,131.4,184.54,131.4Z"/><path class="cls-12" d="M184.32,131.47a4.53,4.53,0,0,0-.72-.22c-.23-.06-.51-.1-.84-.15l-.53,0-.58,0c-.41,0-.86,0-1.32,0s-1,0-1.47.12-1,.13-1.56.22-1.05.21-1.59.31-1.05.26-1.57.37-1,.27-1.51.43a14.28,14.28,0,0,0-1.36.53l-1.18.56a10.6,10.6,0,0,0-1,.53c-.28.16-.52.31-.72.44-.4.26-.61.42-.61.42l.05.11.74-.16.82-.21,1-.3c.39-.11.8-.23,1.23-.37l1.36-.44c.47-.16.94-.36,1.43-.53s1-.36,1.49-.51,1-.31,1.52-.42,1-.25,1.49-.34,1-.16,1.41-.23.88-.11,1.27-.13l.57,0h.52c.32,0,.6,0,.83.06a4,4,0,0,1,.71.13Z"/><path class="cls-11" d="M164.94,142.07s-3.1-14.07-9.44-20.5S145.15,116,142,118.77s-4.3,6.56,2,13S164.94,142.07,164.94,142.07Z"/><path class="cls-12" d="M164.67,141.73a8.15,8.15,0,0,1-1.42-.37,15.48,15.48,0,0,1-1.54-.62l-.92-.45-1-.55c-.69-.39-1.41-.84-2.15-1.35s-1.51-1.07-2.26-1.69-1.52-1.27-2.29-1.95-1.49-1.41-2.24-2.13-1.44-1.49-2.16-2.21a27.15,27.15,0,0,1-2-2.24,20.1,20.1,0,0,1-1.62-2.25c-.48-.73-.92-1.44-1.31-2.1s-.69-1.3-1-1.85-.5-1.06-.67-1.47c-.36-.82-.53-1.31-.53-1.31l.19-.11s.4.35,1,1c.32.32.69.72,1.11,1.19l1.38,1.56q.77.86,1.59,1.86c.55.67,1.14,1.37,1.72,2.1s1.13,1.54,1.74,2.32,1.2,1.6,1.87,2.34,1.3,1.54,2,2.24,1.35,1.43,2,2.07,1.38,1.25,2,1.82,1.32,1.07,1.93,1.52c.32.21.62.42.9.62l.84.52c.54.31,1,.57,1.42.76a7.45,7.45,0,0,0,1.3.51Z"/><path class="cls-13" d="M87.2,313.66H3.12l17.56-38.3L3.12,228.56S83.47,236,87.2,232.82Z"/><polygon class="cls-14" points="39.08 293.58 89.5 312.79 90.06 293.67 39.08 293.58"/><path class="cls-13" d="M391,314.9h84.08l-17.56-38.3,17.56-46.81s-80.36,7.46-84.08,4.26V314.9Z"/><polygon class="cls-15" points="438.97 294.82 388.55 314.03 387.99 294.91 438.97 294.82"/><polygon class="cls-13" points="436.94 292.32 436.94 213.06 241.07 213.06 41.33 213.06 41.33 292.32 238.67 292.32 436.94 292.32"/><g id="letters"><text class="cls-16" transform="translate(55.47 267.96)">PIZZAS CASTILLO</text><text class="cls-17" transform="translate(52.46 264.63)">PIZZAS CASTILLO</text></g></g></g></svg>